<svg width="132" height="156" viewBox="0 0 132 156" fill="none" xmlns="http://www.w3.org/2000/svg">
<ellipse cx="66.1445" cy="77.5791" rx="64.0981" ry="77.8289" transform="rotate(13.4692 66.1445 77.5791)" fill="#1D195B"/>
<path fill-rule="evenodd" clip-rule="evenodd" d="M93.2983 55.4629C105.407 55.4629 115.253 65.5655 115.253 77.9916C115.253 90.4153 105.406 100.518 93.2983 100.518C81.1885 100.518 71.3438 90.4153 71.3438 77.9916C71.3438 65.5664 81.1885 55.4629 93.2983 55.4629ZM93.2982 62.4526C84.9509 62.4526 78.1556 69.4262 78.1556 77.9916C78.1556 86.5553 84.9509 93.528 93.2982 93.528C101.644 93.528 108.441 86.5545 108.441 77.9916C108.441 69.4262 101.644 62.4526 93.2982 62.4526Z" fill="#FD7A7C"/>
<path fill-rule="evenodd" clip-rule="evenodd" d="M61.3067 77.9907C61.3067 65.5659 51.4628 55.4629 39.353 55.4629C27.2447 55.4629 17.3984 65.5659 17.3984 77.9907C17.3984 90.4147 27.2455 100.516 39.353 100.516C51.462 100.516 61.3067 90.4139 61.3067 77.9907ZM24.2106 77.9907C24.2106 69.4257 31.0074 62.4524 39.3532 62.4524C47.7005 62.4524 54.4958 69.4249 54.4958 77.9907C54.4958 86.554 47.7005 93.5265 39.3532 93.5265C31.0066 93.5265 24.2106 86.5532 24.2106 77.9907Z" fill="#24B4C7"/>
<path fill-rule="evenodd" clip-rule="evenodd" d="M115.383 81.3874C110.841 81.3874 110.841 74.3984 115.383 74.3984H119.082C123.624 74.3984 123.624 81.3874 119.082 81.3874H115.383Z" fill="#FFD74E"/>
<path fill-rule="evenodd" clip-rule="evenodd" d="M70.9136 75.315C70.9136 75.315 70.481 75.0045 69.7513 74.6769C68.8901 74.2908 67.7049 73.9226 66.339 73.9226C64.8686 73.9226 62.9965 74.4314 61.7653 75.315C58.1367 78.1161 54.0407 72.5318 57.6692 69.7306C57.6692 69.7306 58.593 68.9942 60.1974 68.274C61.6702 67.6131 63.7958 66.9336 66.339 66.9336C69.1104 66.9336 72.7651 67.9407 75.0096 69.7306C78.6374 72.5318 74.5422 78.1161 70.9136 75.315Z" fill="#89E35E"/>
<path fill-rule="evenodd" clip-rule="evenodd" d="M17.2308 81.3874H13.531C8.98968 81.3874 8.98968 74.3984 13.531 74.3984H17.2308C21.7721 74.3984 21.7721 81.3874 17.2308 81.3874Z" fill="#FD924B"/>
</svg>
