<svg width="132" height="156" viewBox="0 0 132 156" fill="none" xmlns="http://www.w3.org/2000/svg">
<ellipse cx="66.1445" cy="77.5791" rx="64.0981" ry="77.8289" transform="rotate(13.4692 66.1445 77.5791)" fill="white"/>
<g clip-path="url(#clip0_1641_33279)">
<path d="M90.1932 102.234C84.9815 109.295 77.6604 114.537 69.275 117.213C60.8896 119.888 51.8687 119.86 43.5002 117.133C35.1317 114.405 27.8435 109.118 22.6762 102.025C17.5088 94.9328 14.7266 86.3976 14.7266 77.6386C14.7266 68.8796 17.5088 60.3445 22.6762 53.2519C27.8435 46.1593 35.1317 40.8718 43.5002 38.1444C51.8687 35.4169 60.8896 35.389 69.275 38.0645C77.6604 40.7401 84.9815 45.9823 90.1932 53.0427L75.8148 62.2516C70.4583 57.4077 64.487 54.255 56.5673 54.255C50.348 54.255 44.3834 56.7123 39.9857 61.0864C35.588 65.4605 33.1174 71.393 33.1174 77.579C33.1174 83.7649 35.588 89.6974 39.9857 94.0715C44.3834 98.4456 50.348 100.903 56.5673 100.903C64.4854 100.903 69.4828 98.3567 75.8148 93.0216L90.1932 102.234Z" fill="#1A1818"/>
<path d="M116.912 102.237C116.911 100.445 116.376 98.6936 115.374 97.2039C114.372 95.7143 112.949 94.5535 111.284 93.8683C109.619 93.183 107.787 93.0042 106.02 93.3543C104.253 93.7044 102.63 94.5677 101.356 95.8352C100.082 97.1026 99.2141 98.7173 98.8626 100.475C98.5111 102.233 98.6914 104.055 99.3808 105.711C100.07 107.366 101.238 108.782 102.736 109.778C104.233 110.774 105.995 111.306 107.797 111.307C110.214 111.306 112.533 110.35 114.243 108.65C115.952 106.949 116.912 104.642 116.912 102.237Z" fill="#C0051C"/>
</g>
<defs>
<clipPath id="clip0_1641_33279">
<rect width="102" height="83" fill="white" transform="translate(14.9062 36.0781)"/>
</clipPath>
</defs>
</svg>
