<svg width="132" height="156" viewBox="0 0 132 156" fill="none" xmlns="http://www.w3.org/2000/svg">
<ellipse cx="66.1445" cy="77.5791" rx="64.0981" ry="77.8289" transform="rotate(13.4692 66.1445 77.5791)" fill="#5A4FFF"/>
<path fill-rule="evenodd" clip-rule="evenodd" d="M77.1777 68.148C76.4268 67.7739 75.5258 67.8862 74.8875 68.4098L66.4778 75.1055L58.0681 68.4098C57.4299 67.8862 56.5289 67.7739 55.778 68.148C55.0271 68.5221 54.5391 69.2702 54.5391 70.0931V85.6913C54.5391 86.8883 55.5152 87.8608 56.7166 87.8608C57.918 87.8608 58.8941 86.8883 58.8941 85.6913V74.6192L65.1263 79.5942C65.9147 80.2301 67.041 80.2301 67.8294 79.5942L74.0616 74.6192V85.6913C74.0616 86.8883 75.0377 87.8608 76.2391 87.8608C77.4405 87.8608 78.4166 86.8883 78.4166 85.6913V70.0931C78.4166 69.2328 77.9285 68.4846 77.1777 68.148V68.148Z" fill="white"/>
<path fill-rule="evenodd" clip-rule="evenodd" d="M113.291 71.1031L88.2496 58.6095C87.1983 58.0858 86.3349 57.2255 85.7717 56.1782L73.2322 31.2285C71.9182 28.6475 69.3277 27.0391 66.4369 27.0391C63.5461 27.0391 60.918 28.6475 59.6416 31.2285L47.1397 56.1782C46.6141 57.2255 45.7506 58.0858 44.6993 58.6469L19.658 71.1405C17.0675 72.4497 15.4531 75.0307 15.4531 77.9109C15.4531 80.7911 17.0675 83.4095 19.658 84.6813L44.6618 97.1375C45.713 97.6611 46.5765 98.5215 47.1397 99.5688L59.6791 124.518C60.9931 127.099 63.5836 128.708 66.4744 128.708C69.3653 128.708 71.9933 127.099 73.2698 124.518L85.8092 99.5688C86.3348 98.5215 87.1983 97.6611 88.2496 97.1001L113.291 84.6065C115.881 83.2973 117.496 80.7163 117.496 77.8361C117.496 74.9933 115.881 72.3748 113.291 71.1031Z" fill="white"/>
<path fill-rule="evenodd" clip-rule="evenodd" d="M111.19 67.6242L112.354 66.2776C114.269 64.1081 114.757 61.0782 113.63 58.4224C112.504 55.7666 110.026 53.9711 107.135 53.7841L105.371 53.6719L102.18 63.1729L111.19 67.6242V67.6242Z" fill="white"/>
<path fill-rule="evenodd" clip-rule="evenodd" d="M90.799 39.1207L90.6864 37.3627C90.4611 34.4824 88.659 32.0136 85.9935 30.8915C85.0549 30.5174 84.0788 30.293 83.0651 30.293C81.263 30.293 79.4985 30.9663 78.1094 32.1633L76.7578 33.3228L81.263 42.3002L90.799 39.1207V39.1207Z" fill="white"/>
<path fill-rule="evenodd" clip-rule="evenodd" d="M87.722 55.2047C88.0223 55.8406 88.5479 56.3643 89.1862 56.6636L100.224 62.1622L104.391 49.6687C105.292 46.9381 104.616 43.9456 102.552 41.9257C101.125 40.5043 99.2102 39.7188 97.1829 39.7188C96.3569 39.7188 95.531 39.8684 94.7426 40.1302L82.2031 44.2823L87.722 55.2047V55.2047Z" fill="white"/>
<path fill-rule="evenodd" clip-rule="evenodd" d="M56.1896 33.3228L54.8381 32.1633C53.449 30.9663 51.6844 30.293 49.8824 30.293C48.8687 30.293 47.8926 30.48 46.954 30.8915C44.2884 32.0136 42.4863 34.4824 42.2986 37.3627L42.1484 39.1207L51.6844 42.3002L56.1896 33.3228V33.3228Z" fill="white"/>
<path fill-rule="evenodd" clip-rule="evenodd" d="M32.7205 62.1625L43.7207 56.6639C44.3589 56.3646 44.8845 55.8409 45.1849 55.205L50.6662 44.2451L38.1643 40.0931C37.3759 39.8313 36.5499 39.6816 35.724 39.6816C33.6966 39.6816 31.8195 40.4672 30.3553 41.8886C28.2904 43.9459 27.6146 46.901 28.5157 49.6316L32.7205 62.1625V62.1625Z" fill="white"/>
<path fill-rule="evenodd" clip-rule="evenodd" d="M21.7631 67.6245L30.7735 63.1358L27.5823 53.6348L25.8178 53.747C22.927 53.934 20.4491 55.7295 19.3228 58.3853C18.1965 61.0411 18.7221 64.071 20.5993 66.2405L21.7631 67.6245V67.6245Z" fill="white"/>
<path fill-rule="evenodd" clip-rule="evenodd" d="M45.1864 100.541C44.886 99.9053 44.3604 99.3816 43.7222 99.0823L32.722 93.6211L28.5547 106.077C27.6537 108.808 28.3295 111.8 30.3943 113.82C31.821 115.242 33.7357 116.027 35.763 116.027C36.589 116.027 37.4149 115.878 38.2033 115.616L50.7428 111.464L45.1864 100.541V100.541Z" fill="white"/>
<path fill-rule="evenodd" clip-rule="evenodd" d="M42.1484 116.627L42.2611 118.385C42.4488 121.265 44.2509 123.734 46.9164 124.856C49.5445 125.941 52.6606 125.455 54.8005 123.584L56.1521 122.425L51.6469 113.447L42.1484 116.627V116.627Z" fill="white"/>
<path fill-rule="evenodd" clip-rule="evenodd" d="M21.7566 88.123L20.5928 89.4697C18.6781 91.6392 18.19 94.6691 19.3163 97.3249C20.4426 99.9807 22.9205 101.776 25.8113 101.963L27.5758 102.075L30.767 92.6117L21.7566 88.123V88.123Z" fill="white"/>
<path fill-rule="evenodd" clip-rule="evenodd" d="M76.7578 122.425L78.1094 123.584C80.2493 125.455 83.3654 125.941 85.9935 124.856C88.659 123.734 90.4611 121.265 90.6488 118.385L90.7615 116.627L81.2255 113.447L76.7578 122.425V122.425Z" fill="white"/>
<path fill-rule="evenodd" clip-rule="evenodd" d="M100.227 93.584L89.2268 99.0826C88.5885 99.3819 88.0629 99.9056 87.7626 100.541L82.2812 111.501L94.8207 115.653C95.6091 115.915 96.4351 116.065 97.261 116.065C99.2884 116.065 101.166 115.279 102.63 113.858C104.695 111.801 105.37 108.846 104.469 106.115L100.227 93.584V93.584Z" fill="white"/>
<path fill-rule="evenodd" clip-rule="evenodd" d="M111.19 88.123L102.18 92.6117L105.371 102.113L107.135 102.001C110.026 101.814 112.504 100.018 113.63 97.3623C114.757 94.7065 114.231 91.6766 112.354 89.5071L111.19 88.123V88.123Z" fill="white"/>
<path fill-rule="evenodd" clip-rule="evenodd" d="M78.4166 85.6542C78.4166 86.8512 77.4405 87.8237 76.2391 87.8237C75.0377 87.8237 74.0616 86.8512 74.0616 85.6542V74.5821L67.8294 79.557C67.041 80.1929 65.9147 80.1929 65.1263 79.557L58.8941 74.5821V85.6542C58.8941 86.8512 57.918 87.8237 56.7166 87.8237C55.5152 87.8237 54.5391 86.8512 54.5391 85.6542V70.056C54.5391 69.2331 55.0271 68.4475 55.778 68.1109C56.5289 67.7368 57.4299 67.849 58.0681 68.3727L66.4778 75.0684L74.8875 68.3727C75.5258 67.849 76.4268 67.7368 77.1777 68.1109C77.9285 68.4849 78.4166 69.2331 78.4166 70.056V85.6542V85.6542Z" fill="#5A4FFF"/>
</svg>
