<svg width="140" height="57" viewBox="0 0 140 57" fill="none" xmlns="http://www.w3.org/2000/svg">
<path fill-rule="evenodd" clip-rule="evenodd" d="M103.35 0.148438C118.396 0.148438 130.631 12.7018 130.631 28.1423C130.631 43.5797 118.395 56.1331 103.35 56.1331C88.303 56.1331 76.0701 43.5797 76.0701 28.1423C76.0701 12.7028 88.303 0.148438 103.35 0.148438M103.35 8.83347C92.978 8.83347 84.5343 17.4987 84.5343 28.1419C84.5343 38.783 92.978 47.4473 103.35 47.4473C113.721 47.4473 122.166 38.782 122.166 28.1419C122.166 17.4987 113.721 8.83347 103.35 8.83347" fill="#FD7A7C"/>
<path fill-rule="evenodd" clip-rule="evenodd" d="M63.5998 28.1412C63.5998 12.7023 51.3678 0.148438 36.3204 0.148438C21.2749 0.148438 9.04004 12.7023 9.04004 28.1412C9.04004 43.579 21.2759 56.1309 36.3204 56.1309C51.3669 56.1309 63.5998 43.578 63.5998 28.1412ZM17.5046 28.1411C17.5046 17.4984 25.9503 8.83347 36.3206 8.83347C46.6928 8.83347 55.1365 17.4974 55.1365 28.1411C55.1365 38.7818 46.6928 47.4457 36.3206 47.4457C25.9493 47.4457 17.5046 38.7808 17.5046 28.1411Z" fill="#24B4C7"/>
<path fill-rule="evenodd" clip-rule="evenodd" d="M130.795 32.3621C125.152 32.3621 125.152 23.6777 130.795 23.6777H135.392C141.035 23.6777 141.035 32.3621 135.392 32.3621H130.795Z" fill="#FFD74E"/>
<path fill-rule="evenodd" clip-rule="evenodd" d="M75.5392 24.8169C75.5392 24.8169 75.0016 24.4311 74.095 24.024C73.0248 23.5443 71.5521 23.0867 69.8549 23.0867C68.0277 23.0867 65.7015 23.719 64.1716 24.8169C59.6628 28.2975 54.5731 21.3585 59.0819 17.8779C59.0819 17.8779 60.2298 16.9628 62.2234 16.0679C64.0535 15.2467 66.6948 14.4023 69.8549 14.4023C73.2985 14.4023 77.8398 15.6538 80.6288 17.8779C85.1366 21.3585 80.048 28.2975 75.5392 24.8169" fill="#89E35E"/>
<path fill-rule="evenodd" clip-rule="evenodd" d="M8.82962 32.3621H4.23219C-1.41073 32.3621 -1.41073 23.6777 4.23219 23.6777H8.82962C14.4725 23.6777 14.4725 32.3621 8.82962 32.3621" fill="#FD924B"/>
</svg>
