<svg width="58" height="58" viewBox="0 0 58 58" fill="none" xmlns="http://www.w3.org/2000/svg">
<g clip-path="url(#clip0_1336_166573)">
<path fill-rule="evenodd" clip-rule="evenodd" d="M42.9998 17.9185C49.2206 17.9185 54.2792 23.1088 54.2792 29.4929C54.2792 35.8757 49.2202 41.0661 42.9998 41.0661C36.7782 41.0661 31.7204 35.8757 31.7204 29.4929C31.7204 23.1093 36.7782 17.9185 42.9998 17.9185M42.9998 21.5096C38.7112 21.5096 35.2201 25.0923 35.2201 29.4929C35.2201 33.8926 38.7112 37.475 42.9998 37.475C47.2875 37.475 50.7795 33.8922 50.7795 29.4929C50.7795 25.0923 47.2875 21.5096 42.9998 21.5096" fill="#FD7A7C"/>
<path fill-rule="evenodd" clip-rule="evenodd" d="M26.5644 29.4924C26.5644 23.109 21.507 17.9185 15.2854 17.9185C9.06462 17.9185 4.00595 23.109 4.00595 29.4924C4.00595 35.8754 9.06503 41.0652 15.2854 41.0652C21.5066 41.0652 26.5644 35.875 26.5644 29.4924ZM7.50581 29.4926C7.50581 25.0922 10.9978 21.5096 15.2855 21.5096C19.5741 21.5096 23.0653 25.0918 23.0653 29.4926C23.0653 33.8921 19.5741 37.4743 15.2855 37.4743C10.9974 37.4743 7.50581 33.8917 7.50581 29.4926Z" fill="#24B4C7"/>
<path fill-rule="evenodd" clip-rule="evenodd" d="M54.3471 31.2376C52.014 31.2376 52.014 27.647 54.3471 27.647H56.248C58.5812 27.647 58.5812 31.2376 56.248 31.2376H54.3471Z" fill="#FFD74E"/>
<path fill-rule="evenodd" clip-rule="evenodd" d="M31.5009 28.1181C31.5009 28.1181 31.2786 27.9585 30.9038 27.7902C30.4613 27.5919 29.8524 27.4027 29.1506 27.4027C28.3952 27.4027 27.4334 27.6641 26.8008 28.1181C24.9366 29.5572 22.8322 26.6881 24.6964 25.249C24.6964 25.249 25.171 24.8707 25.9953 24.5007C26.752 24.1611 27.8441 23.812 29.1506 23.812C30.5745 23.812 32.4521 24.3294 33.6053 25.249C35.4691 26.6881 33.3651 29.5572 31.5009 28.1181" fill="#89E35E"/>
<path fill-rule="evenodd" clip-rule="evenodd" d="M3.91892 31.2376H2.01805C-0.315098 31.2376 -0.315098 27.647 2.01805 27.647H3.91892C6.25206 27.647 6.25206 31.2376 3.91892 31.2376" fill="#FD924B"/>
</g>
<defs>
<clipPath id="clip0_1336_166573">
<rect width="57.9574" height="57.7451" fill="white"/>
</clipPath>
</defs>
</svg>
