<svg width="235" height="119" viewBox="0 0 235 119" fill="none" xmlns="http://www.w3.org/2000/svg">
<rect x="0.40625" y="108.057" width="94" height="234.595" transform="rotate(-90 0.40625 108.057)" fill="#FA3457"/>
<rect x="5.46875" y="103.193" width="84.2759" height="126.616" transform="rotate(-90 5.46875 103.193)" fill="#1A1A1A"/>
<rect x="142.723" y="58.0449" width="41.1922" height="42.6942" rx="4.25541" fill="#1A1A1A"/>
<rect x="141.092" y="58.7542" width="39.7737" height="41.2757" rx="3.54618" fill="#D9D9D9" stroke="#1A1A1A" stroke-width="1.41847"/>
<path d="M152.118 95.1423C147.833 95.1423 145.843 92.6422 145.843 88.9686C145.843 84.1981 149.032 78.4071 155.103 78.4071C159.313 78.4071 161.328 80.7796 161.328 84.4787C161.328 89.2493 158.165 95.1423 152.118 95.1423ZM154.95 80.4734C150.613 80.4734 148.215 85.0654 148.215 88.8666C148.215 91.9534 149.95 93.0759 152.272 93.0759C156.557 93.0759 158.955 88.3564 158.955 84.6318C158.955 81.5959 157.221 80.4734 154.95 80.4734ZM174.013 83.4072C174.013 81.5704 172.431 80.4734 169.88 80.4734C167.227 80.4734 164.778 82.0296 164.778 84.4277C164.778 86.0604 165.9 87.0553 168.63 87.0553C171.309 87.0553 174.013 86.0094 174.013 83.4072ZM166.895 95.1423C162.584 95.1423 160.39 93.3055 160.39 91.3667C160.39 90.0656 161.206 89.2493 162.482 89.2493C163.706 89.2493 164.37 89.9636 164.37 90.882C164.37 91.5453 164.038 92.1065 163.375 92.3361C164.268 92.8208 165.441 93.1014 166.895 93.1014C169.855 93.1014 171.742 91.5963 172.967 89.4789C173.579 88.4074 174.038 87.2084 174.37 85.9583L174.115 85.8818C172.839 87.8206 170.518 88.9176 167.916 88.9176C163.834 88.9176 162.482 87.0298 162.482 84.6828C162.482 80.9837 165.62 78.4071 170.161 78.4071C174.115 78.4071 176.437 80.4734 176.437 84.5807C176.437 89.4023 173.528 95.1423 166.895 95.1423Z" fill="#1A1A1A"/>
<path d="M192.909 72.8956C191.522 72.8956 190.541 72.0488 190.442 69.8766L191.657 69.7662V69.8521C191.731 71.0916 192.136 71.7911 192.897 71.7911C193.486 71.7911 193.94 71.3248 193.94 70.4412C193.94 69.7662 193.474 69.1894 192.86 68.8458L192.111 68.4285C191.363 68.0113 190.786 67.2381 190.786 66.2563C190.786 64.8696 191.682 64.0596 192.921 64.0596C194.296 64.0596 195.081 65.1027 195.081 66.33C195.081 66.4036 195.069 66.465 195.069 66.465L193.952 66.5877V66.4404C193.952 65.5814 193.523 65.1641 192.946 65.1641C192.43 65.1641 192.026 65.4586 192.026 66.2072C192.026 66.7595 192.32 67.1031 192.835 67.3976L193.633 67.8517C194.639 68.4162 195.192 69.3489 195.192 70.3553C195.192 71.8893 194.259 72.8956 192.909 72.8956ZM198.802 72.8956C197.341 72.8956 196.274 71.8893 196.274 70.0116V64.1946H197.525V70.0239C197.525 71.1039 198.041 71.7175 198.802 71.7175C199.575 71.7175 200.078 71.1039 200.078 70.0239V64.1946H201.33V70.0116C201.33 71.8647 200.299 72.8956 198.802 72.8956ZM202.834 72.7852V64.1946H205.35C206.602 64.1946 207.571 64.9677 207.571 66.2809C207.571 67.5326 206.651 68.3303 205.485 68.3303H204.086V72.7852H202.834ZM204.086 67.2136H205.362C205.963 67.2136 206.282 66.8454 206.282 66.2809C206.282 65.7163 205.816 65.3114 205.239 65.3114H204.086V67.2136ZM208.563 72.7852V64.1946H212.637V65.3114H209.814V67.0172H212.404V68.134H209.814V71.6684H212.674V72.7852H208.563ZM213.896 72.7852V64.1946H216.166C217.283 64.1946 218.4 64.9555 218.4 66.2318C218.4 66.5509 218.326 67.189 217.872 67.6676C217.651 67.9008 217.406 68.0603 217.16 68.1708L218.952 72.7852H217.59L215.921 68.3426H215.148V72.7852H213.896ZM215.148 67.2381H216.277C216.755 67.1767 217.099 66.8577 217.099 66.2318C217.099 65.6918 216.645 65.3114 216.056 65.3114H215.148V67.2381ZM190.933 83.7852V75.1946H192.234L195.02 81.1589V75.1946H196.259V83.7852H194.959L192.173 77.8331V83.7852H190.933ZM197.268 83.7852L199.195 75.1946H201.024L202.95 83.7852H201.625L200.938 80.5207H199.244L198.52 83.7852H197.268ZM199.428 79.4899H200.754L200.116 76.2868H200.091L199.428 79.4899ZM205.09 83.7852V76.3114H203.212V75.1946H208.219V76.3114H206.341V83.7852H205.09ZM211.505 83.8956C210.045 83.8956 208.977 82.8893 208.977 81.0116V75.1946H210.229V81.0239C210.229 82.1039 210.744 82.7175 211.505 82.7175C212.278 82.7175 212.782 82.1039 212.782 81.0239V75.1946H214.033V81.0116C214.033 82.8647 213.002 83.8956 211.505 83.8956ZM215.538 83.7852V75.1946H217.808C218.925 75.1946 220.042 75.9555 220.042 77.2318C220.042 77.5509 219.968 78.189 219.514 78.6676C219.293 78.9008 219.048 79.0603 218.802 79.1708L220.594 83.7852H219.232L217.563 79.3426H216.789V83.7852H215.538ZM216.789 78.2381H217.918C218.397 78.1767 218.741 77.8577 218.741 77.2318C218.741 76.6918 218.287 76.3114 217.698 76.3114H216.789V78.2381ZM220.77 83.7852L222.697 75.1946H224.526L226.452 83.7852H225.127L224.44 80.5207H222.746L222.022 83.7852H220.77ZM222.93 79.4899H224.256L223.617 76.2868H223.593L222.93 79.4899ZM227.462 83.7852V75.1946H228.714V82.6684H231.488V83.7852H227.462ZM190.933 94.7852V86.1946H192.811C194.578 86.1946 196.112 87.8268 196.112 90.4285C196.112 93.1898 194.627 94.7852 192.848 94.7852H190.933ZM192.848 93.6684C193.94 93.6684 194.811 92.4289 194.811 90.4285C194.811 88.4895 193.891 87.3114 192.811 87.3114H192.185V93.6684H192.848ZM197.441 94.7852V86.1946H201.515V87.3114H198.693V89.0172H201.282V90.134H198.693V93.6684H201.552V94.7852H197.441ZM204.75 94.8956C203.363 94.8956 202.381 94.0488 202.283 91.8766L203.498 91.7662V91.8521C203.572 93.0916 203.977 93.7911 204.738 93.7911C205.327 93.7911 205.781 93.3248 205.781 92.4412C205.781 91.7662 205.314 91.1894 204.701 90.8458L203.952 90.4285C203.204 90.0113 202.627 89.2381 202.627 88.2563C202.627 86.8696 203.523 86.0596 204.762 86.0596C206.137 86.0596 206.922 87.1027 206.922 88.33C206.922 88.4036 206.91 88.465 206.91 88.465L205.793 88.5877V88.4404C205.793 87.5814 205.364 87.1641 204.787 87.1641C204.271 87.1641 203.866 87.4586 203.866 88.2072C203.866 88.7595 204.161 89.1031 204.676 89.3976L205.474 89.8517C206.48 90.4162 207.033 91.3489 207.033 92.3553C207.033 93.8893 206.1 94.8956 204.75 94.8956ZM208.323 94.7852V86.1946H209.575V94.7852H208.323ZM213.762 94.8956C211.847 94.8956 210.902 92.9934 210.902 90.3917C210.902 87.9372 211.884 86.0596 213.774 86.0596C215.357 86.0596 216.118 87.3359 216.4 88.5877L215.185 88.919C214.977 88.06 214.633 87.2377 213.774 87.2377C212.645 87.2377 212.191 88.7104 212.191 90.3917C212.191 92.3184 212.633 93.7297 213.762 93.7297C214.56 93.7297 215.038 92.932 215.124 91.9748H213.541V90.9194H216.425V91.2508C216.425 93.6193 215.271 94.8956 213.762 94.8956ZM217.647 94.7852V86.1946H218.948L221.734 92.1589V86.1946H222.973V94.7852H221.672L218.886 88.8331V94.7852H217.647Z" fill="#1A1A1A"/>
<path d="M157.507 69.9014V70.7852C156.216 70.7554 154.221 70.7752 152.721 70.7852C152.801 68.7497 152.791 66.4262 152.721 64.5496C154.012 64.5595 156.345 64.5595 157.358 64.5496C157.358 64.6588 157.368 65.324 157.368 65.4134C156.514 65.3538 154.667 65.3439 153.754 65.3538C153.734 65.8801 153.724 66.5652 153.724 67.3C154.618 67.3099 156.395 67.3 156.663 67.2801C156.653 67.5383 156.653 67.8262 156.663 68.0745C156.395 68.0546 154.578 68.0546 153.724 68.0645C153.724 68.7199 153.724 69.3851 153.734 69.971C154.429 69.971 155.73 69.9809 157.507 69.9014ZM163.289 65.9496C163.18 65.9694 162.485 66.2574 162.365 66.2773C162.147 65.7014 161.621 65.2049 160.707 65.2049C159.823 65.2049 159.357 65.5723 159.357 66.1581C159.357 66.7837 160.032 67.0617 161.065 67.2007C162.643 67.3993 163.557 67.7964 163.557 69.0575C163.557 70.11 162.713 70.9242 161.005 70.9242C159.615 70.9242 158.354 70.4476 158.026 69.0972C158.155 69.0674 158.86 68.8589 158.98 68.8291C159.238 69.7823 160.022 70.0901 161.015 70.0901C162.097 70.0901 162.574 69.6234 162.574 69.0872C162.574 68.4319 162.077 68.1539 160.926 68.0248C159.545 67.8659 158.394 67.4688 158.394 66.1879C158.394 65.195 159.218 64.4105 160.697 64.4105C162.167 64.4105 162.822 65.0063 163.289 65.9496ZM169.332 65.4333C168.915 65.4035 167.793 65.3935 167.058 65.3935C167.028 66.9425 167.048 69.7724 167.078 70.7852C166.869 70.7752 166.273 70.7752 166.065 70.7852C166.095 69.7724 166.114 66.9425 166.085 65.3935C165.37 65.3935 164.268 65.4035 163.851 65.4333V64.5496C164.198 64.5595 165.429 64.5793 166.591 64.5793C167.753 64.5793 168.984 64.5595 169.332 64.5496V65.4333Z" fill="#1A1A1A"/>
<line x1="145" y1="74.5185" x2="176.956" y2="74.5185" stroke="#1A1A1A" stroke-width="0.53338"/>
<path d="M150.522 50.7204C145.189 50.7204 139.356 47.7871 139.356 40.3539C139.356 32.254 145.922 26.5207 152.789 26.5207C159.056 26.5207 163.189 29.5873 163.755 34.0873L157.156 35.8206C156.922 34.2206 155.222 32.6873 152.356 32.6873C149.089 32.6873 146.356 35.8206 146.356 39.9872C146.356 43.5205 148.856 44.6872 151.089 44.6872C153.522 44.6872 154.656 44.0872 155.589 42.7539H151.422L152.589 37.3539H163.589L163.089 39.5206C161.089 48.2205 156.122 50.7204 150.522 50.7204ZM160.703 50.2871L165.67 26.954H176.07C180.57 26.954 182.937 29.9207 182.937 33.2873C182.937 36.1873 181.937 38.4206 180.07 39.8872C179.37 40.4539 178.637 40.8539 177.87 41.1205L181.07 50.2871H174.07L171.303 41.6539H169.237L167.403 50.2871H160.703ZM170.437 36.0206H174.137C175.403 36.0206 176.17 35.3539 176.17 34.2539C176.17 33.3873 175.67 32.8206 174.47 32.8206H171.103L170.437 36.0206ZM180.034 50.2871L185.001 26.954H201.634L200.367 32.8206H190.467L189.934 35.3539H199.067L197.834 41.1205H188.667L187.967 44.4205H198.134L196.9 50.2871H180.034ZM209.588 50.7204C204.255 50.7204 198.422 47.7871 198.422 40.3539C198.422 32.254 204.988 26.5207 211.855 26.5207C218.121 26.5207 222.255 29.5873 222.821 34.0873L216.221 35.8206C215.988 34.2206 214.288 32.6873 211.421 32.6873C208.155 32.6873 205.421 35.8206 205.421 39.9872C205.421 43.5205 207.921 44.6872 210.155 44.6872C212.588 44.6872 213.721 44.0872 214.655 42.7539H210.488L211.655 37.3539H222.655L222.155 39.5206C220.155 48.2205 215.188 50.7204 209.588 50.7204Z" fill="#1A1A1A"/>
<path d="M34.9989 108.851C42.8732 113.757 56.0743 115.512 69.7393 112.017C83.5147 108.494 97.9843 99.5945 108.404 82.8553C115.947 70.7377 119.373 56.1893 118.916 43.18C118.462 30.26 114.137 18.3244 105.531 12.0528C95.3514 4.63441 80.3396 4.37759 66.059 9.16227C51.6969 13.9742 37.5218 24.0415 28.6973 38.1419C19.9227 52.1628 17.0398 66.9863 18.5503 79.7206C20.0552 92.4078 25.9649 103.223 34.9989 108.851Z" fill="#1A1A1A" stroke="#D4D4D4" stroke-width="4.77919"/>
<rect x="14.3789" y="25.8711" width="2.3856" height="7.09217" fill="#D4D4D4"/>
<rect x="19.1094" y="28.2207" width="2.3856" height="7.09217" transform="rotate(90 19.1094 28.2207)" fill="#D4D4D4"/>
<rect x="117.242" y="88.2676" width="2.3856" height="7.09217" fill="#D4D4D4"/>
<rect x="121.973" y="90.6172" width="2.3856" height="7.09217" transform="rotate(90 121.973 90.6172)" fill="#D4D4D4"/>
<path d="M28.5117 73.0108C28.5117 44.6535 48.8348 24.7766 69.3879 18.1931C89.0268 11.9052 103.414 18.0152 107.638 32.4547L85.9439 45.51C84.2321 40.1811 77.8361 36.8095 69.3879 39.5146C61.7372 41.9634 52.0313 50.2598 52.0313 65.4744C52.0313 81.844 61.3937 83.4544 69.5014 80.8579C77.2656 78.3699 82.5173 74.1538 85.3733 69.0903L71.7867 73.4421V54.7684L109.353 42.7385V47.3496C109.353 78.7016 87.7721 95.8734 69.7314 101.649C48.9513 108.304 28.5117 101.824 28.5117 73.0078L28.5117 73.0108Z" fill="#D4D4D4"/>
</svg>
