<svg width="173" height="46" viewBox="0 0 173 46" fill="none" xmlns="http://www.w3.org/2000/svg">
<rect x="0.75" y="3.5" width="171.75" height="38.1543" fill="#FDEB4F"/>
<ellipse cx="47.3557" cy="22.875" rx="18.9007" ry="22.9496" transform="rotate(13.4692 47.3557 22.875)" fill="#4D6FED"/>
<path d="M46.5761 33.9743C44.6561 33.9743 42.9495 33.6863 41.4561 33.1103C39.9841 32.5343 38.7361 31.7236 37.7121 30.6783C36.6881 29.633 35.9095 28.3956 35.3761 26.9663C34.8641 25.537 34.6081 23.9796 34.6081 22.2943C34.6081 20.5876 34.8961 19.0303 35.4721 17.6223C36.0695 16.193 36.9228 14.9556 38.0321 13.9103C39.1415 12.865 40.4535 12.0543 41.9681 11.4783C43.5041 10.9023 45.2108 10.6143 47.0881 10.6143C48.3895 10.6143 49.5948 10.7743 50.7041 11.0943C51.8348 11.4143 52.8481 11.8516 53.7441 12.4063C54.6615 12.9396 55.4508 13.5476 56.1121 14.2303L52.0161 18.5823C51.5895 18.177 51.1308 17.825 50.6401 17.5263C50.1495 17.2063 49.6055 16.961 49.0081 16.7903C48.4108 16.5983 47.7388 16.5023 46.9921 16.5023C46.2241 16.5023 45.5201 16.6516 44.8801 16.9503C44.2401 17.2276 43.6855 17.6223 43.2161 18.1343C42.7468 18.6463 42.3735 19.265 42.0961 19.9903C41.8401 20.6943 41.7121 21.4623 41.7121 22.2943C41.7121 23.1263 41.8508 23.905 42.1281 24.6303C42.4055 25.3343 42.7895 25.9423 43.2801 26.4543C43.7708 26.9663 44.3575 27.3716 45.0401 27.6703C45.7228 27.9476 46.4695 28.0863 47.2801 28.0863C47.8348 28.0863 48.3361 28.001 48.7841 27.8303C49.2535 27.6383 49.6481 27.393 49.9681 27.0943C50.3095 26.7743 50.5761 26.401 50.7681 25.9743C50.9601 25.5263 51.0561 25.0463 51.0561 24.5343V23.6063L51.9521 25.1423H46.2561V20.2783H57.2641C57.2855 20.513 57.3068 20.897 57.3281 21.4303C57.3708 21.9636 57.3921 22.497 57.3921 23.0303C57.4135 23.5423 57.4241 23.8943 57.4241 24.0863C57.4241 25.5156 57.1575 26.8383 56.6241 28.0543C56.0908 29.2703 55.3335 30.3156 54.3521 31.1903C53.3921 32.065 52.2508 32.7476 50.9281 33.2383C49.6055 33.729 48.1548 33.9743 46.5761 33.9743Z" fill="#FDEB4F"/>
</svg>
