<svg width="227" height="119" viewBox="0 0 227 119" fill="none" xmlns="http://www.w3.org/2000/svg">
<rect width="226" height="97" transform="translate(0.0546875 11)" fill="#FA3457"/>
<rect width="85" height="126" transform="translate(6.05469 102) rotate(-90)" fill="#1A1A1A"/>
<path d="M35.2724 108.75C43.1466 113.656 56.3478 115.411 70.0128 111.917C83.7881 108.394 98.2578 99.4939 108.678 82.7547C116.221 70.6371 119.647 56.0888 119.19 43.0794C118.736 30.1594 114.411 18.2238 105.804 11.9522C95.6248 4.53383 80.6131 4.277 66.3324 9.06168C51.9703 13.8737 37.7952 23.941 28.9708 38.0414C20.1961 52.0622 17.3133 66.8857 18.8237 79.62C20.3286 92.3073 26.2384 103.122 35.2724 108.75Z" fill="#1A1A1A" stroke="#D4D4D4" stroke-width="4.77919"/>
<path d="M28.7871 72.9093C28.7871 44.552 49.1102 24.675 69.6633 18.0916C89.3022 11.8037 103.689 17.9136 107.914 32.3532L86.2192 45.4084C84.5075 40.0796 78.1115 36.7079 69.6633 39.4131C62.0126 41.8619 52.3067 50.1583 52.3067 65.3728C52.3067 81.7425 61.6691 83.3529 69.7768 80.7563C77.5409 78.2683 82.7927 74.0522 85.6487 68.9888L72.0621 73.3405V54.6669L109.628 42.6369V47.2481C109.628 78.6 88.0475 95.7718 70.0068 101.547C49.2267 108.203 28.7871 101.722 28.7871 72.9062L28.7871 72.9093Z" fill="#D4D4D4"/>
<g filter="url(#filter0_d_1844_48940)">
<rect x="136.055" y="102" width="85" height="84" rx="4" transform="rotate(-90 136.055 102)" fill="#FA3457" shape-rendering="crispEdges"/>
<rect x="136.555" y="101.5" width="84" height="83" rx="3.5" transform="rotate(-90 136.555 101.5)" stroke="#1A1A1A" shape-rendering="crispEdges"/>
<path d="M147.581 91.099C146.206 91.099 144.809 90.439 144.644 88.327L145.568 88.25C145.568 88.261 145.568 88.316 145.579 88.382C145.722 89.658 146.525 90.274 147.603 90.274C148.45 90.274 149.319 89.845 149.319 88.932C149.319 88.14 148.703 87.755 147.625 87.403L146.998 87.216C145.645 86.787 145.051 86.27 145.051 85.203C145.051 84.037 146.129 83.168 147.592 83.168C149.077 83.168 150.188 84.059 150.199 85.434V85.489L149.297 85.588V85.533C149.264 84.477 148.505 83.993 147.603 83.993C146.69 83.993 146.008 84.488 146.008 85.17C146.008 85.808 146.393 86.072 147.504 86.413L148.109 86.6C149.605 87.062 150.276 87.711 150.276 88.877C150.276 90.219 149.077 91.099 147.581 91.099ZM151.362 91V85.61H152.264V91H151.362ZM151.813 84.466C151.472 84.466 151.208 84.213 151.208 83.861C151.208 83.509 151.472 83.256 151.813 83.256C152.154 83.256 152.418 83.509 152.418 83.861C152.418 84.213 152.154 84.466 151.813 84.466ZM157.355 87.777C157.355 86.798 156.904 86.314 156.112 86.314C155.441 86.314 154.891 86.754 154.66 87.48V91H153.758V85.61H154.66V86.358C155.001 85.841 155.562 85.489 156.31 85.489C157.465 85.489 158.257 86.215 158.257 87.656V91H157.355V87.777ZM161.724 91.11C160.404 91.11 159.183 90.098 159.183 88.283C159.183 86.501 160.426 85.478 161.735 85.478C162.824 85.478 163.616 86.039 163.968 86.941L163.198 87.26C162.901 86.622 162.406 86.303 161.735 86.303C160.899 86.303 160.107 86.985 160.107 88.283C160.107 89.592 160.899 90.285 161.757 90.285C162.505 90.285 162.978 89.9 163.264 89.141L164.034 89.438C163.693 90.527 162.846 91.11 161.724 91.11ZM167.033 91.099C165.548 91.099 164.404 90.021 164.404 88.25C164.404 86.567 165.493 85.478 166.934 85.478C168.32 85.478 169.244 86.534 169.332 87.931L169.354 88.426H165.317C165.35 89.603 166.12 90.329 167.11 90.329C167.748 90.329 168.32 90.01 168.65 89.449L169.288 89.911C168.881 90.626 168.078 91.099 167.033 91.099ZM165.328 87.722H168.419C168.309 86.776 167.704 86.248 166.923 86.248C166.142 86.248 165.427 86.732 165.328 87.722Z" fill="#1A1A1A"/>
<path d="M179.994 89.5177C179.872 89.9456 179.734 90.5263 179.627 91C177.61 90.9542 173.194 90.9694 171.437 91C171.513 90.5568 171.59 90.1748 171.651 89.8845C172.063 87.9896 173.362 87.3937 176.449 86.6449C179.276 85.942 180.055 85.1321 180.055 84.0624C180.055 82.9469 179.215 82.3968 177.809 82.3968C176.648 82.3968 175.318 82.8399 174.676 83.7262C174.737 83.7109 174.829 83.7109 174.906 83.7109C175.608 83.7109 175.99 84.1694 175.99 84.7653C175.99 85.4071 175.578 85.8808 174.799 85.8808C173.805 85.8808 173.393 85.2085 173.393 84.368C173.393 82.5649 175.333 81.1896 177.87 81.1896C180.453 81.1896 181.476 82.4732 181.476 83.879C181.476 85.8197 180.193 87.0575 176.678 87.8063C174.111 88.3564 173.316 88.7842 173.026 89.7775C175.288 89.7775 177.564 89.7622 179.994 89.5177ZM184.949 91.2139C182.382 91.2139 181.19 89.7164 181.19 87.5159C181.19 84.6584 183.1 81.1896 186.737 81.1896C189.258 81.1896 190.465 82.6107 190.465 84.8265C190.465 87.684 188.57 91.2139 184.949 91.2139ZM186.645 82.4273C184.047 82.4273 182.611 85.1779 182.611 87.4548C182.611 89.3038 183.65 89.9762 185.04 89.9762C187.608 89.9762 189.044 87.1492 189.044 84.9181C189.044 83.0997 188.005 82.4273 186.645 82.4273ZM193.968 91.2139C191.401 91.2139 190.209 89.7164 190.209 87.5159C190.209 84.6584 192.119 81.1896 195.756 81.1896C198.277 81.1896 199.485 82.6107 199.485 84.8265C199.485 87.684 197.59 91.2139 193.968 91.2139ZM195.664 82.4273C193.067 82.4273 191.63 85.1779 191.63 87.4548C191.63 89.3038 192.669 89.9762 194.06 89.9762C196.627 89.9762 198.063 87.1492 198.063 84.9181C198.063 83.0997 197.024 82.4273 195.664 82.4273ZM207.083 84.1846C207.083 83.0844 206.135 82.4273 204.607 82.4273C203.018 82.4273 201.551 83.3595 201.551 84.7959C201.551 85.7739 202.224 86.3698 203.859 86.3698C205.463 86.3698 207.083 85.7433 207.083 84.1846ZM202.819 91.2139C200.237 91.2139 198.923 90.1137 198.923 88.9523C198.923 88.173 199.412 87.684 200.176 87.684C200.909 87.684 201.307 88.1119 201.307 88.662C201.307 89.0593 201.108 89.3955 200.711 89.533C201.246 89.8234 201.948 89.9915 202.819 89.9915C204.592 89.9915 205.723 89.0899 206.456 87.8215C206.823 87.1797 207.098 86.4615 207.297 85.7128L207.144 85.6669C206.38 86.8283 204.989 87.4854 203.431 87.4854C200.986 87.4854 200.176 86.3546 200.176 84.9487C200.176 82.7329 202.055 81.1896 204.775 81.1896C207.144 81.1896 208.535 82.4273 208.535 84.8876C208.535 87.7757 206.793 91.2139 202.819 91.2139Z" fill="#1A1A1A"/>
<line x1="144.055" y1="72.7238" x2="209.078" y2="72.7238" stroke="#1A1A1A" stroke-width="0.425541"/>
<path d="M147.52 38.3196C145.825 38.3196 144.625 37.2846 144.505 34.6296L145.99 34.4946V34.5996C146.08 36.1146 146.575 36.9696 147.505 36.9696C148.225 36.9696 148.78 36.3996 148.78 35.3196C148.78 34.4946 148.21 33.7896 147.46 33.3696L146.545 32.8596C145.63 32.3496 144.925 31.4046 144.925 30.2046C144.925 28.5096 146.02 27.5196 147.535 27.5196C149.215 27.5196 150.175 28.7946 150.175 30.2946C150.175 30.3846 150.16 30.4596 150.16 30.4596L148.795 30.6096V30.4296C148.795 29.3796 148.27 28.8696 147.565 28.8696C146.935 28.8696 146.44 29.2296 146.44 30.1446C146.44 30.8196 146.8 31.2396 147.43 31.5996L148.405 32.1546C149.635 32.8446 150.31 33.9846 150.31 35.2146C150.31 37.0896 149.17 38.3196 147.52 38.3196ZM154.722 38.3196C152.937 38.3196 151.632 37.0896 151.632 34.7946V27.6846H153.162V34.8096C153.162 36.1296 153.792 36.8796 154.722 36.8796C155.667 36.8796 156.282 36.1296 156.282 34.8096V27.6846H157.812V34.7946C157.812 37.0596 156.552 38.3196 154.722 38.3196ZM159.651 38.1846V27.6846H162.726C164.256 27.6846 165.441 28.6296 165.441 30.2346C165.441 31.7646 164.316 32.7396 162.891 32.7396H161.181V38.1846H159.651ZM161.181 31.3746H162.741C163.476 31.3746 163.866 30.9246 163.866 30.2346C163.866 29.5446 163.296 29.0496 162.591 29.0496H161.181V31.3746ZM166.653 38.1846V27.6846H171.633V29.0496H168.183V31.1346H171.348V32.4996H168.183V36.8196H171.678V38.1846H166.653ZM173.171 38.1846V27.6846H175.946C177.311 27.6846 178.676 28.6146 178.676 30.1746C178.676 30.5646 178.586 31.3446 178.031 31.9296C177.761 32.2146 177.461 32.4096 177.161 32.5446L179.351 38.1846H177.686L175.646 32.7546H174.701V38.1846H173.171ZM174.701 31.4046H176.081C176.666 31.3296 177.086 30.9396 177.086 30.1746C177.086 29.5146 176.531 29.0496 175.811 29.0496H174.701V31.4046ZM145.105 51.1846V40.6846H146.695L150.1 47.9746V40.6846H151.615V51.1846H150.025L146.62 43.9096V51.1846H145.105ZM152.848 51.1846L155.203 40.6846H157.438L159.793 51.1846H158.173L157.333 47.1946H155.263L154.378 51.1846H152.848ZM155.488 45.9346H157.108L156.328 42.0196H156.298L155.488 45.9346ZM162.408 51.1846V42.0496H160.113V40.6846H166.233V42.0496H163.938V51.1846H162.408ZM170.249 51.3196C168.464 51.3196 167.159 50.0896 167.159 47.7946V40.6846H168.689V47.8096C168.689 49.1296 169.319 49.8796 170.249 49.8796C171.194 49.8796 171.809 49.1296 171.809 47.8096V40.6846H173.339V47.7946C173.339 50.0596 172.079 51.3196 170.249 51.3196ZM175.178 51.1846V40.6846H177.953C179.318 40.6846 180.683 41.6146 180.683 43.1746C180.683 43.5646 180.593 44.3446 180.038 44.9296C179.768 45.2146 179.468 45.4096 179.168 45.5446L181.358 51.1846H179.693L177.653 45.7546H176.708V51.1846H175.178ZM176.708 44.4046H178.088C178.673 44.3296 179.093 43.9396 179.093 43.1746C179.093 42.5146 178.538 42.0496 177.818 42.0496H176.708V44.4046ZM181.574 51.1846L183.929 40.6846H186.164L188.519 51.1846H186.899L186.059 47.1946H183.989L183.104 51.1846H181.574ZM184.214 45.9346H185.834L185.054 42.0196H185.024L184.214 45.9346ZM189.753 51.1846V40.6846H191.283V49.8196H194.673V51.1846H189.753ZM145.105 64.1846V53.6846H147.4C149.56 53.6846 151.435 55.6796 151.435 58.8596C151.435 62.2346 149.62 64.1846 147.445 64.1846H145.105ZM147.445 62.8196C148.78 62.8196 149.845 61.3046 149.845 58.8596C149.845 56.4896 148.72 55.0496 147.4 55.0496H146.635V62.8196H147.445ZM153.059 64.1846V53.6846H158.039V55.0496H154.589V57.1346H157.754V58.4996H154.589V62.8196H158.084V64.1846H153.059ZM161.992 64.3196C160.297 64.3196 159.097 63.2846 158.977 60.6296L160.462 60.4946V60.5996C160.552 62.1146 161.047 62.9696 161.977 62.9696C162.697 62.9696 163.252 62.3996 163.252 61.3196C163.252 60.4946 162.682 59.7896 161.932 59.3696L161.017 58.8596C160.102 58.3496 159.397 57.4046 159.397 56.2046C159.397 54.5096 160.492 53.5196 162.007 53.5196C163.687 53.5196 164.647 54.7946 164.647 56.2946C164.647 56.3846 164.632 56.4596 164.632 56.4596L163.267 56.6096V56.4296C163.267 55.3796 162.742 54.8696 162.037 54.8696C161.407 54.8696 160.912 55.2296 160.912 56.1446C160.912 56.8196 161.272 57.2396 161.902 57.5996L162.877 58.1546C164.107 58.8446 164.782 59.9846 164.782 61.2146C164.782 63.0896 163.642 64.3196 161.992 64.3196ZM166.36 64.1846V53.6846H167.89V64.1846H166.36ZM173.007 64.3196C170.667 64.3196 169.512 61.9946 169.512 58.8146C169.512 55.8146 170.712 53.5196 173.022 53.5196C174.957 53.5196 175.887 55.0796 176.232 56.6096L174.747 57.0146C174.492 55.9646 174.072 54.9596 173.022 54.9596C171.642 54.9596 171.087 56.7596 171.087 58.8146C171.087 61.1696 171.627 62.8946 173.007 62.8946C173.982 62.8946 174.567 61.9196 174.672 60.7496H172.737V59.4596H176.262V59.8646C176.262 62.7596 174.852 64.3196 173.007 64.3196ZM177.756 64.1846V53.6846H179.346L182.751 60.9746V53.6846H184.266V64.1846H182.676L179.271 56.9096V64.1846H177.756Z" fill="#1A1A1A"/>
</g>
<defs>
<filter id="filter0_d_1844_48940" x="136.055" y="17" width="86" height="87" filterUnits="userSpaceOnUse" color-interpolation-filters="sRGB">
<feFlood flood-opacity="0" result="BackgroundImageFix"/>
<feColorMatrix in="SourceAlpha" type="matrix" values="0 0 0 0 0 0 0 0 0 0 0 0 0 0 0 0 0 0 127 0" result="hardAlpha"/>
<feOffset dx="2" dy="2"/>
<feComposite in2="hardAlpha" operator="out"/>
<feColorMatrix type="matrix" values="0 0 0 0 0.101961 0 0 0 0 0.101961 0 0 0 0 0.101961 0 0 0 1 0"/>
<feBlend mode="normal" in2="BackgroundImageFix" result="effect1_dropShadow_1844_48940"/>
<feBlend mode="normal" in="SourceGraphic" in2="effect1_dropShadow_1844_48940" result="shape"/>
</filter>
</defs>
</svg>
