<svg width="46" height="46" viewBox="0 0 46 46" fill="none" xmlns="http://www.w3.org/2000/svg">
<rect x="0.5" y="0.5" width="45" height="45" rx="12.4375" fill="#F8F5F0"/>
<path d="M21.8254 20.5524C21.0709 20.5524 20.3689 20.4747 19.7192 20.3193L18.556 21.3974C18.9123 21.5722 19.3943 21.7179 20.0021 21.8345C20.6099 21.951 21.5949 22.0676 22.9571 22.1841C25.0319 22.359 26.5409 22.8155 27.484 23.5536C28.4271 24.2918 28.8986 25.3117 28.8986 26.6132C28.8986 27.4679 28.6471 28.2741 28.1441 29.0317C27.6412 29.8087 26.8657 30.4303 25.8178 30.8965C24.77 31.3822 23.4287 31.625 21.794 31.625C19.5725 31.625 17.7806 31.2365 16.4184 30.4595C15.0561 29.7019 14.375 28.5557 14.375 27.0211C14.375 25.7196 15.0561 24.5929 16.4184 23.641C15.9992 23.4662 15.6325 23.2817 15.3181 23.0874C15.0247 22.8932 14.7627 22.6892 14.5322 22.4755V21.8053L17.2671 19.1246C16.0516 18.1339 15.4438 16.8615 15.4438 15.3074C15.4438 14.3361 15.6953 13.4523 16.1983 12.6558C16.7222 11.8594 17.4558 11.228 18.3989 10.7618C19.3419 10.2956 20.4841 10.0625 21.8254 10.0625C22.7056 10.0625 23.523 10.1791 24.2775 10.4122H30.1875V12.685L27.5154 12.8598C27.9346 13.598 28.1441 14.4139 28.1441 15.3074C28.1441 16.2787 27.8926 17.1626 27.3897 17.959C26.8867 18.7555 26.1532 19.3868 25.1891 19.853C24.246 20.3193 23.1248 20.5524 21.8254 20.5524ZM21.8254 17.6968C22.6428 17.6968 23.3134 17.4928 23.8374 17.0849C24.3822 16.6769 24.6547 16.0942 24.6547 15.3366C24.6547 14.579 24.3822 13.9962 23.8374 13.5883C23.3134 13.1803 22.6428 12.9764 21.8254 12.9764C20.9662 12.9764 20.2746 13.1803 19.7506 13.5883C19.2267 13.9962 18.9647 14.579 18.9647 15.3366C18.9647 16.0942 19.2267 16.6769 19.7506 17.0849C20.2746 17.4928 20.9662 17.6968 21.8254 17.6968ZM18.0531 26.6423C18.0531 27.3611 18.4093 27.8953 19.1219 28.2449C19.8554 28.614 20.7461 28.7986 21.794 28.7986C22.8 28.7986 23.6173 28.6043 24.246 28.2158C24.8748 27.8467 25.1891 27.3416 25.1891 26.7006C25.1891 26.1761 24.9795 25.739 24.5604 25.3894C24.1622 25.0397 23.3553 24.826 22.1398 24.7483C21.2805 24.69 20.4841 24.6026 19.7506 24.4861C19.1429 24.7969 18.7027 25.1368 18.4303 25.5059C18.1788 25.875 18.0531 26.2538 18.0531 26.6423Z" fill="black"/>
<line x1="31.625" y1="36.6562" x2="14.375" y2="36.6562" stroke="black" stroke-width="1.4375"/>
<rect x="0.5" y="0.5" width="45" height="45" rx="12.4375" stroke="black"/>
</svg>
