<svg width="46" height="46" viewBox="0 0 46 46" fill="none" xmlns="http://www.w3.org/2000/svg">
<g filter="url(#filter0_b_1697_119)">
<g clip-path="url(#clip0_1697_119)">
<rect width="46" height="46" rx="11" fill="#ECA562"/>
<path d="M22.6977 13.7954C17.7093 13.7954 14.7093 19.1359 14.7093 23.5023C14.7093 26.7603 16.3488 28.3389 19.6279 28.3389C22.6977 28.3389 25.2093 26.458 25.2093 24.8794C25.2093 24.342 24.8953 24.1069 23.814 24.1069C21.8256 24.1069 19.907 24.174 19.1395 24.2076C19.5581 23.1664 19.907 22.0916 20.186 21.0504C21.9302 21.1176 31.593 21.1511 33.2326 21.0168C32.814 22.058 32.3605 23.1664 32.1163 24.174C31.6628 24.174 31.1047 24.1405 30.6512 24.1405C29.7442 24.1405 29.5349 24.5435 29.1163 25.6519C28.4884 27.3313 27.8605 29.3802 27.2674 31.5634C26.3953 31.5298 24.8605 31.4962 23.2558 31.5634C23.5349 30.7908 24.1279 29.6824 24.5116 28.3389L24.2674 28.2718C22.4884 30.455 20.1512 32 17.5349 32C12.6512 32 10 28.742 10 23.9053C10 17.5237 14.8488 10 21.9651 10C25.4535 10 27.407 11.8137 28 14.8366H28.1744C28.6977 12.8214 29.2209 10.9069 29.3256 10.4702C31 10.5374 32.814 10.5374 34 10.4702C32.9884 12.6198 31.3837 17.3557 30.8605 19.0687C29.6744 18.9679 28.314 18.9679 27.1977 19.0351C27.2326 18.7664 27.1977 18.4641 27.1977 18.1954C27.1977 15.1053 25.2442 13.7954 22.6977 13.7954Z" fill="black"/>
<line x1="35" y1="37.7188" x2="10" y2="37.7188" stroke="black" stroke-width="1.4375"/>
</g>
</g>
<defs>
<filter id="filter0_b_1697_119" x="-25" y="-25" width="96" height="96" filterUnits="userSpaceOnUse" color-interpolation-filters="sRGB">
<feFlood flood-opacity="0" result="BackgroundImageFix"/>
<feGaussianBlur in="BackgroundImageFix" stdDeviation="12.5"/>
<feComposite in2="SourceAlpha" operator="in" result="effect1_backgroundBlur_1697_119"/>
<feBlend mode="normal" in="SourceGraphic" in2="effect1_backgroundBlur_1697_119" result="shape"/>
</filter>
<clipPath id="clip0_1697_119">
<rect width="46" height="46" rx="11" fill="white"/>
</clipPath>
</defs>
</svg>
