<svg width="290" height="145" viewBox="0 0 290 145" fill="none" xmlns="http://www.w3.org/2000/svg">
<rect x="0.5" y="132.42" width="116" height="289.5" transform="rotate(-90 0.5 132.42)" fill="#FA3457"/>
<rect x="6.75" y="126.42" width="104" height="156.25" transform="rotate(-90 6.75 126.42)" fill="#1A1A1A"/>
<path d="M188.217 60.689C181.636 60.689 174.437 57.0692 174.437 47.8963C174.437 37.9006 182.541 30.8255 191.014 30.8255C198.748 30.8255 203.848 34.6099 204.548 40.163L196.403 42.302C196.115 40.3275 194.017 38.4354 190.48 38.4354C186.448 38.4354 183.075 42.302 183.075 47.4438C183.075 51.804 186.161 53.2437 188.917 53.2437C191.919 53.2437 193.318 52.5033 194.47 50.8579H189.328L190.768 44.1942H204.342L203.725 46.8679C201.257 57.604 195.128 60.689 188.217 60.689ZM200.781 60.1543L206.91 31.3603H219.744C225.297 31.3603 228.218 35.0212 228.218 39.1758C228.218 42.7545 226.984 45.5105 224.68 47.3204C223.816 48.0197 222.911 48.5133 221.965 48.8424L225.914 60.1543H217.276L213.862 49.5005H211.312L209.049 60.1543H200.781ZM212.792 42.5488H217.358C218.921 42.5488 219.868 41.7261 219.868 40.3687C219.868 39.2992 219.251 38.5999 217.77 38.5999H213.615L212.792 42.5488ZM224.636 60.1543L230.765 31.3603H251.291L249.728 38.5999H237.511L236.853 41.7261H248.124L246.602 48.8424H235.29L234.426 52.9147H246.972L245.45 60.1543H224.636ZM261.107 60.689C254.525 60.689 247.327 57.0692 247.327 47.8963C247.327 37.9006 255.43 30.8255 263.904 30.8255C271.637 30.8255 276.738 34.6099 277.437 40.163L269.293 42.302C269.005 40.3275 266.907 38.4354 263.369 38.4354C259.338 38.4354 255.965 42.302 255.965 47.4438C255.965 51.804 259.05 53.2437 261.806 53.2437C264.809 53.2437 266.208 52.5033 267.359 50.8579H262.218L263.657 44.1942H277.232L276.615 46.8679C274.147 57.604 268.018 60.689 261.107 60.689Z" fill="#1A1A1A"/>
<rect x="178.301" y="67.7051" width="47.3853" height="52.6865" rx="5.25136" fill="#1A1A1A"/>
<rect x="176.485" y="68.5803" width="45.6349" height="50.936" rx="4.37613" fill="#D9D9D9" stroke="#1A1A1A" stroke-width="1.75045"/>
<path d="M191.09 95.393C190.204 98.1274 188.657 99.2777 186.281 99.2777C183.189 99.2777 181.944 97.4862 181.944 95.129C181.944 93.1679 182.887 91.8667 184.358 91.8667C185.263 91.8667 185.791 92.3758 185.791 93.2244C185.791 94.0353 185.282 94.6953 184.358 94.6953C184.037 94.6953 183.754 94.6199 183.566 94.469C183.528 94.6953 183.509 94.9216 183.509 95.129C183.509 96.7696 184.565 97.7691 186.225 97.7691C187.413 97.7691 188.506 97.2411 189.261 95.3553C189.827 93.8656 190.713 91.0181 191.128 89.5284C191.297 88.9249 191.241 88.6043 190.241 88.6043C188.45 88.6043 186.941 88.6232 186.017 88.6798C186.225 88.1518 186.413 87.6049 186.526 87.1335C187.318 87.1712 194.107 87.2466 196.106 87.1335C195.917 87.6238 195.729 88.1895 195.597 88.6232C195.088 88.6232 194.654 88.6043 194.22 88.6043C193.56 88.6043 193.221 88.8684 193.032 89.3964C192.467 90.9804 191.618 93.7902 191.09 95.393ZM203.823 99.0137C203.125 98.9571 198.92 98.976 198.241 99.0137C198.43 98.5234 198.6 98.0331 198.732 97.5428C198.977 97.5616 199.429 97.5616 199.92 97.5616C200.787 97.5616 201.07 97.2788 201.07 96.7508C201.07 96.5433 201.032 96.2793 201.013 96.0153C200.995 95.7325 200.957 95.393 200.919 95.0347C199.637 94.997 197.204 94.997 195.903 95.0347C195.677 95.393 195.45 95.7325 195.262 96.053C194.979 96.5056 194.79 96.8262 194.79 97.1091C194.79 97.3919 194.998 97.5805 195.601 97.5805C196.299 97.5805 196.657 97.5805 196.997 97.5616C196.846 97.9388 196.62 98.6931 196.525 99.0137C195.828 98.9571 191.585 98.976 190.906 99.0137C191.094 98.5234 191.302 98.0519 191.415 97.5616C191.547 97.5805 191.66 97.5805 191.905 97.5805C192.358 97.5616 192.622 97.4485 193.131 96.7508C194.281 95.129 196.789 91.3575 197.977 89.5095C198.392 88.8495 198.204 88.5855 197.544 88.5855C197.11 88.5855 196.752 88.5855 196.374 88.6043C196.582 88.0952 196.733 87.6426 196.865 87.1712C197.487 87.2089 201.145 87.2466 201.862 87.1712C201.994 89.5661 202.484 94.7896 202.786 96.6942C202.861 97.2976 203.088 97.5805 203.823 97.5805C203.974 97.5805 204.106 97.5805 204.276 97.5616C204.144 97.9388 203.88 98.6931 203.823 99.0137ZM196.714 93.7713C197.902 93.7713 199.618 93.7713 200.787 93.7713C200.617 91.9798 200.372 89.8678 200.221 88.5855C199.071 90.2449 197.789 92.1118 196.714 93.7713ZM213.313 99.0137C212.766 98.9948 211.22 98.9948 211.05 99.0137C210.899 98.2217 210.164 95.4873 209.485 92.9604C209.07 91.3387 208.636 89.7735 208.448 88.6609L208.316 88.6798C208.089 90.0375 207.618 91.9798 207.335 92.9227C206.958 94.2804 206.524 95.525 206.26 96.6188C206.128 97.1468 206.222 97.5428 206.939 97.5616C207.316 97.5616 207.769 97.5616 207.976 97.5428C207.825 97.9199 207.618 98.6931 207.561 99.0137C206.901 98.9571 203.017 98.976 202.376 99.0137C202.564 98.5234 202.734 98.0331 202.847 97.5428C203.073 97.5428 203.337 97.5616 203.601 97.5616C204.092 97.5616 204.299 97.4108 204.544 96.7508C205.242 94.8273 206.354 91.3198 206.845 89.5284C207.052 88.8684 206.826 88.5855 206.298 88.5855C205.958 88.5855 205.694 88.6043 205.562 88.6043C205.77 88.1141 205.902 87.6426 206.015 87.1712C206.505 87.2089 209.391 87.2278 209.805 87.1712C209.919 88.0763 210.635 90.8672 211.389 93.4884C211.748 94.7896 212.125 96.1851 212.332 97.2599H212.502C212.747 95.8456 213.2 94.1107 213.445 93.2433C213.897 91.7535 214.293 90.4712 214.576 89.5472C214.727 88.8872 214.501 88.6043 213.822 88.6043C213.2 88.6043 212.992 88.6043 212.747 88.6232C212.936 88.1518 213.105 87.6426 213.2 87.1712C213.897 87.2089 217.801 87.2466 218.404 87.1712C218.235 87.6615 218.084 88.1518 217.952 88.6232C217.763 88.6043 217.612 88.5855 217.405 88.5855C216.839 88.5855 216.5 88.7175 216.236 89.4152C215.5 91.4141 213.615 97.3731 213.313 99.0137Z" fill="#1A1A1A"/>
<path d="M192.135 115.028C189.061 115.028 187.666 113.255 187.666 110.54C187.666 106.976 190.042 102.657 194.341 102.657C197.302 102.657 198.735 104.279 198.735 107.032C198.735 110.577 196.397 115.028 192.135 115.028ZM194.341 103.6C190.702 103.6 188.703 107.372 188.703 110.577C188.703 113.142 190.23 114.085 192.154 114.085C195.699 114.085 197.698 110.181 197.698 107.07C197.698 104.524 196.17 103.6 194.341 103.6ZM208.79 106.089C208.79 104.524 207.489 103.6 205.396 103.6C203.227 103.6 201.228 104.939 201.228 107.032C201.228 108.484 202.171 109.37 204.434 109.37C206.49 109.37 208.79 108.446 208.79 106.089ZM209.997 107.221C209.997 110.728 207.942 115.028 203.246 115.028C200.172 115.028 198.551 113.519 198.551 112.067C198.551 111.124 199.098 110.558 199.984 110.558C200.814 110.558 201.247 111.049 201.247 111.671C201.247 112.256 200.851 112.765 200.059 112.765C199.908 112.765 199.776 112.746 199.626 112.727C200.38 113.538 201.662 114.066 203.34 114.066C205.717 114.066 207.244 112.67 208.111 110.879C208.564 109.974 208.847 108.974 209.035 107.975L208.847 107.918C207.942 109.446 206.169 110.313 204.17 110.313C201.172 110.313 200.172 108.899 200.172 107.126C200.172 104.486 202.398 102.657 205.622 102.657C208.375 102.657 209.997 104.185 209.997 107.221Z" fill="#1A1A1A"/>
<path d="M234.384 87.1689C232.876 87.1689 231.808 86.2481 231.701 83.886L233.022 83.7659V83.8593C233.102 85.2072 233.543 85.9679 234.37 85.9679C235.011 85.9679 235.505 85.4607 235.505 84.4999C235.505 83.7659 234.997 83.1387 234.33 82.765L233.516 82.3113C232.702 81.8575 232.075 81.0168 232.075 79.9491C232.075 78.4411 233.049 77.5603 234.397 77.5603C235.892 77.5603 236.746 78.6947 236.746 80.0292C236.746 80.1093 236.732 80.176 236.732 80.176L235.518 80.3095V80.1493C235.518 79.2152 235.051 78.7614 234.424 78.7614C233.863 78.7614 233.423 79.0817 233.423 79.8958C233.423 80.4963 233.743 80.87 234.303 81.1903L235.171 81.684C236.265 82.2979 236.866 83.3122 236.866 84.4065C236.866 86.0746 235.852 87.1689 234.384 87.1689ZM240.791 87.1689C239.203 87.1689 238.042 86.0746 238.042 84.0328V77.7071H239.403V84.0461C239.403 85.2205 239.964 85.8878 240.791 85.8878C241.632 85.8878 242.179 85.2205 242.179 84.0461V77.7071H243.54V84.0328C243.54 86.0479 242.419 87.1689 240.791 87.1689ZM245.176 87.0488V77.7071H247.912C249.273 77.7071 250.327 78.5479 250.327 79.9758C250.327 81.3371 249.327 82.2045 248.059 82.2045H246.537V87.0488H245.176ZM246.537 80.9901H247.925C248.579 80.9901 248.926 80.5897 248.926 79.9758C248.926 79.362 248.419 78.9216 247.792 78.9216H246.537V80.9901ZM251.406 87.0488V77.7071H255.836V78.9216H252.767V80.7765H255.583V81.991H252.767V85.8344H255.876V87.0488H251.406ZM257.205 87.0488V77.7071H259.674C260.889 77.7071 262.103 78.5345 262.103 79.9225C262.103 80.2694 262.023 80.9634 261.529 81.4838C261.289 81.7374 261.022 81.9109 260.755 82.031L262.703 87.0488H261.222L259.407 82.2178H258.566V87.0488H257.205ZM258.566 81.0168H259.794C260.315 80.95 260.688 80.6031 260.688 79.9225C260.688 79.3353 260.195 78.9216 259.554 78.9216H258.566V81.0168ZM232.235 99.0488V89.7071H233.65L236.679 96.1929V89.7071H238.027V99.0488H236.612L233.583 92.5764V99.0488H232.235ZM239.124 99.0488L241.219 89.7071H243.208L245.303 99.0488H243.862L243.114 95.499H241.273L240.485 99.0488H239.124ZM241.473 94.378H242.914L242.22 90.8949H242.193L241.473 94.378ZM247.629 99.0488V90.9216H245.587V89.7071H251.032V90.9216H248.99V99.0488H247.629ZM254.606 99.1689C253.018 99.1689 251.857 98.0746 251.857 96.0328V89.7071H253.218V96.0461C253.218 97.2205 253.778 97.8878 254.606 97.8878C255.446 97.8878 255.994 97.2205 255.994 96.0461V89.7071H257.355V96.0328C257.355 98.0479 256.234 99.1689 254.606 99.1689ZM258.991 99.0488V89.7071H261.46C262.674 89.7071 263.888 90.5345 263.888 91.9225C263.888 92.2694 263.808 92.9634 263.315 93.4838C263.074 93.7374 262.807 93.9109 262.541 94.031L264.489 99.0488H263.008L261.193 94.2178H260.352V99.0488H258.991ZM260.352 93.0168H261.58C262.1 92.95 262.474 92.6031 262.474 91.9225C262.474 91.3353 261.98 90.9216 261.339 90.9216H260.352V93.0168ZM264.681 99.0488L266.776 89.7071H268.764L270.86 99.0488H269.418L268.671 95.499H266.829L266.042 99.0488H264.681ZM267.03 94.378H268.471L267.777 90.8949H267.75L267.03 94.378ZM271.958 99.0488V89.7071H273.319V97.8344H276.335V99.0488H271.958ZM232.235 111.049V101.707H234.277C236.198 101.707 237.867 103.482 237.867 106.311C237.867 109.314 236.252 111.049 234.317 111.049H232.235ZM234.317 109.834C235.505 109.834 236.452 108.487 236.452 106.311C236.452 104.203 235.451 102.922 234.277 102.922H233.596V109.834H234.317ZM239.312 111.049V101.707H243.742V102.922H240.673V104.777H243.489V105.991H240.673V109.834H243.782V111.049H239.312ZM247.26 111.169C245.752 111.169 244.684 110.248 244.577 107.886L245.898 107.766V107.859C245.978 109.207 246.419 109.968 247.246 109.968C247.887 109.968 248.381 109.461 248.381 108.5C248.381 107.766 247.874 107.139 247.206 106.765L246.392 106.311C245.578 105.858 244.951 105.017 244.951 103.949C244.951 102.441 245.925 101.56 247.273 101.56C248.768 101.56 249.622 102.695 249.622 104.029C249.622 104.109 249.608 104.176 249.608 104.176L248.394 104.309V104.149C248.394 103.215 247.927 102.761 247.3 102.761C246.739 102.761 246.299 103.082 246.299 103.896C246.299 104.496 246.619 104.87 247.18 105.19L248.047 105.684C249.141 106.298 249.742 107.312 249.742 108.406C249.742 110.075 248.728 111.169 247.26 111.169ZM251.145 111.049V101.707H252.506V111.049H251.145ZM257.06 111.169C254.978 111.169 253.95 109.1 253.95 106.271C253.95 103.602 255.018 101.56 257.073 101.56C258.794 101.56 259.622 102.948 259.929 104.309L258.608 104.67C258.381 103.736 258.007 102.841 257.073 102.841C255.845 102.841 255.351 104.443 255.351 106.271C255.351 108.366 255.832 109.901 257.06 109.901C257.927 109.901 258.447 109.034 258.541 107.993H256.819V106.845H259.955V107.205C259.955 109.781 258.701 111.169 257.06 111.169ZM261.284 111.049V101.707H262.699L265.728 108.193V101.707H267.076V111.049H265.662L262.632 104.576V111.049H261.284Z" fill="#1A1A1A"/>
<path d="M195.501 81.4672C193.859 81.4672 192.682 80.2296 192.682 78.3181C192.682 76.4924 193.797 75.2671 195.39 75.2671C196.873 75.2671 197.841 76.4924 197.951 77.8892C197.976 78.1221 197.988 78.2568 197.988 78.4039H193.381C193.405 79.8988 194.349 80.83 195.599 80.83C196.346 80.83 197.02 80.4624 197.412 79.8007L197.902 80.1806C197.473 80.9403 196.603 81.4672 195.501 81.4672ZM193.393 77.779H197.265C197.106 76.6027 196.395 75.9042 195.39 75.9042C194.41 75.9042 193.503 76.5169 193.393 77.779ZM201.043 81.4917C200.112 81.4917 199.009 81.0751 198.58 79.8375L199.181 79.5557C199.499 80.4134 200.222 80.8545 201.043 80.8545C201.852 80.8545 202.464 80.4869 202.464 79.764C202.464 79.0043 201.754 78.8082 201.043 78.6857C199.818 78.4774 198.874 78.2201 198.874 77.0193C198.874 75.9532 199.805 75.2303 200.933 75.2303C202.06 75.2303 202.82 75.8062 203.114 76.6272L202.526 76.8967C202.256 76.2351 201.68 75.8675 200.933 75.8675C200.124 75.8675 199.56 76.3331 199.56 76.9703C199.56 77.7177 200.247 77.8647 200.982 77.9995C202.244 78.2323 203.151 78.5142 203.151 79.7395C203.151 80.8545 202.158 81.4917 201.043 81.4917ZM206.137 81.4917C205.316 81.4917 204.654 81.0628 204.654 79.8865V76.0268H203.686V75.4018H204.642V73.5639H205.341V75.4018H207.387V76.0268H205.341V79.862C205.341 80.6094 205.72 80.8545 206.137 80.8545C206.419 80.8545 206.725 80.7442 206.946 80.4747L207.399 80.8913C207.08 81.3324 206.59 81.4917 206.137 81.4917Z" fill="#1A1A1A"/>
<line x1="187.332" y1="83.1066" x2="212.433" y2="83.1066" stroke="#1A1A1A" stroke-width="0.525136"/>
<path d="M43.1882 133.402C52.9054 139.456 69.1961 141.622 86.0593 137.309C103.059 132.962 120.915 121.979 133.774 101.322C143.082 86.3687 147.31 68.4154 146.746 52.3613C146.185 36.4175 140.848 21.6885 130.228 13.949C117.666 4.79445 99.1405 4.47751 81.5176 10.382C63.7942 16.3202 46.3015 28.7437 35.4117 46.1442C24.5834 63.4465 21.0259 81.7393 22.8899 97.454C24.7469 113.111 32.0398 126.457 43.1882 133.402Z" fill="#1A1A1A" stroke="#D4D4D4" stroke-width="5.89772"/>
<rect x="17.7422" y="31" width="2.94393" height="8.75204" fill="#D4D4D4"/>
<rect x="23.582" y="33.9004" width="2.94393" height="8.75204" transform="rotate(90 23.582 33.9004)" fill="#D4D4D4"/>
<rect x="144.68" y="108" width="2.94393" height="8.75204" fill="#D4D4D4"/>
<rect x="150.52" y="110.9" width="2.94393" height="8.75204" transform="rotate(90 150.52 110.9)" fill="#D4D4D4"/>
<path d="M35.1836 89.1727C35.1836 54.1786 60.2631 29.6496 85.6265 21.5254C109.862 13.7658 127.616 21.3058 132.829 39.1248L106.057 55.2355C103.945 48.6595 96.052 44.4987 85.6265 47.837C76.1853 50.8589 64.2077 61.097 64.2077 79.8725C64.2077 100.073 75.7613 102.061 85.7666 98.8563C95.3479 95.786 101.829 90.5832 105.353 84.3347L88.5868 89.7049V66.6608L134.945 51.8154V57.5057C134.945 96.1954 108.313 117.386 86.0505 124.513C60.4069 132.727 35.1836 124.729 35.1836 89.169L35.1836 89.1727Z" fill="#D4D4D4"/>
</svg>
