<svg width="235" height="119" viewBox="0 0 235 119" fill="none" xmlns="http://www.w3.org/2000/svg">
<rect x="0.40625" y="108.057" width="94" height="234.595" transform="rotate(-90 0.40625 108.057)" fill="#FA3457"/>
<rect x="5.46875" y="103.193" width="84.2759" height="126.616" transform="rotate(-90 5.46875 103.193)" fill="#1A1A1A"/>
<rect x="142.562" y="58.0449" width="38.3984" height="42.6942" rx="4.25541" fill="#1A1A1A"/>
<rect x="141.092" y="58.7542" width="36.98" height="41.2757" rx="3.54618" fill="#D9D9D9" stroke="#1A1A1A" stroke-width="1.41847"/>
<path d="M152.928 80.7067C152.21 82.9224 150.957 83.8546 149.031 83.8546C146.525 83.8546 145.517 82.4029 145.517 80.4927C145.517 78.9035 146.281 77.8491 147.473 77.8491C148.206 77.8491 148.634 78.2617 148.634 78.9493C148.634 79.6064 148.221 80.1413 147.473 80.1413C147.213 80.1413 146.984 80.0801 146.831 79.9579C146.8 80.1413 146.785 80.3246 146.785 80.4927C146.785 81.8222 147.641 82.6321 148.985 82.6321C149.948 82.6321 150.834 82.2042 151.446 80.6761C151.904 79.4689 152.622 77.1615 152.958 75.9543C153.096 75.4653 153.05 75.2055 152.24 75.2055C150.789 75.2055 149.566 75.2208 148.817 75.2666C148.985 74.8387 149.138 74.3956 149.23 74.0136C149.872 74.0441 155.373 74.1052 156.993 74.0136C156.84 74.4109 156.687 74.8693 156.58 75.2208C156.167 75.2208 155.816 75.2055 155.465 75.2055C154.93 75.2055 154.655 75.4194 154.502 75.8473C154.043 77.1309 153.356 79.4078 152.928 80.7067ZM163.246 83.6406C162.681 83.5948 159.273 83.6101 158.723 83.6406C158.876 83.2433 159.013 82.846 159.12 82.4487C159.319 82.464 159.686 82.464 160.083 82.464C160.786 82.464 161.015 82.2348 161.015 81.8069C161.015 81.6388 160.985 81.4249 160.969 81.2109C160.954 80.9817 160.923 80.7067 160.893 80.4163C159.854 80.3858 157.883 80.3858 156.828 80.4163C156.645 80.7067 156.461 80.9817 156.309 81.2415C156.079 81.6082 155.927 81.868 155.927 82.0972C155.927 82.3265 156.095 82.4793 156.584 82.4793C157.149 82.4793 157.439 82.4793 157.714 82.464C157.592 82.7696 157.409 83.3808 157.332 83.6406C156.767 83.5948 153.329 83.6101 152.779 83.6406C152.931 83.2433 153.1 82.8613 153.191 82.464C153.298 82.4793 153.39 82.4793 153.589 82.4793C153.955 82.464 154.169 82.3723 154.582 81.8069C155.514 80.4927 157.546 77.4365 158.509 75.939C158.845 75.4041 158.692 75.1902 158.158 75.1902C157.806 75.1902 157.516 75.1902 157.21 75.2055C157.378 74.7929 157.501 74.4261 157.607 74.0441C158.112 74.0747 161.076 74.1052 161.657 74.0441C161.764 75.9848 162.161 80.2177 162.406 81.7611C162.467 82.25 162.65 82.4793 163.246 82.4793C163.368 82.4793 163.475 82.4793 163.613 82.464C163.506 82.7696 163.292 83.3808 163.246 83.6406ZM157.485 79.3925C158.448 79.3925 159.839 79.3925 160.786 79.3925C160.648 77.9408 160.45 76.2293 160.328 75.1902C159.395 76.5349 158.356 78.0478 157.485 79.3925ZM170.936 83.6406C170.493 83.6253 169.24 83.6253 169.102 83.6406C168.98 82.9988 168.384 80.7831 167.834 78.7354C167.498 77.4212 167.146 76.1529 166.994 75.2513L166.887 75.2666C166.703 76.3668 166.321 77.9408 166.092 78.7048C165.786 79.8051 165.435 80.8136 165.221 81.6999C165.114 82.1278 165.19 82.4487 165.771 82.464C166.077 82.464 166.444 82.464 166.612 82.4487C166.489 82.7543 166.321 83.3808 166.275 83.6406C165.741 83.5948 162.593 83.6101 162.073 83.6406C162.226 83.2433 162.363 82.846 162.455 82.4487C162.639 82.4487 162.852 82.464 163.066 82.464C163.464 82.464 163.632 82.3417 163.83 81.8069C164.396 80.2482 165.297 77.406 165.695 75.9543C165.863 75.4194 165.679 75.1902 165.252 75.1902C164.977 75.1902 164.763 75.2055 164.656 75.2055C164.824 74.8082 164.931 74.4261 165.022 74.0441C165.42 74.0747 167.758 74.09 168.094 74.0441C168.186 74.7776 168.766 77.0392 169.377 79.1633C169.668 80.2177 169.973 81.3485 170.142 82.2195H170.279C170.478 81.0734 170.844 79.6676 171.043 78.9646C171.41 77.7574 171.731 76.7183 171.96 75.9695C172.082 75.4347 171.899 75.2055 171.349 75.2055C170.844 75.2055 170.676 75.2055 170.478 75.2208C170.631 74.8387 170.768 74.4261 170.844 74.0441C171.41 74.0747 174.573 74.1052 175.062 74.0441C174.924 74.4414 174.802 74.8387 174.695 75.2208C174.542 75.2055 174.42 75.1902 174.252 75.1902C173.794 75.1902 173.519 75.2972 173.305 75.8626C172.709 77.4824 171.181 82.3112 170.936 83.6406Z" fill="#1A1A1A"/>
<path d="M153.774 96.6163C151.283 96.6163 150.153 95.1799 150.153 92.9794C150.153 90.0913 152.078 86.5919 155.562 86.5919C157.961 86.5919 159.122 87.9061 159.122 90.1371C159.122 93.0099 157.228 96.6163 153.774 96.6163ZM155.562 87.356C152.613 87.356 150.993 90.4122 150.993 93.0099C150.993 95.0882 152.231 95.8522 153.789 95.8522C156.662 95.8522 158.282 92.689 158.282 90.1677C158.282 88.1047 157.044 87.356 155.562 87.356ZM167.271 89.3731C167.271 88.1047 166.216 87.356 164.52 87.356C162.763 87.356 161.143 88.4409 161.143 90.1371C161.143 91.3138 161.907 92.032 163.741 92.032C165.407 92.032 167.271 91.2832 167.271 89.3731ZM168.249 90.2899C168.249 93.1322 166.583 96.6163 162.778 96.6163C160.287 96.6163 158.973 95.3938 158.973 94.2172C158.973 93.4531 159.416 92.9947 160.135 92.9947C160.807 92.9947 161.158 93.392 161.158 93.8963C161.158 94.37 160.838 94.7826 160.196 94.7826C160.074 94.7826 159.967 94.7673 159.844 94.752C160.456 95.4091 161.495 95.8369 162.855 95.8369C164.78 95.8369 166.018 94.7061 166.721 93.2544C167.088 92.521 167.317 91.7111 167.47 90.9012L167.317 90.8553C166.583 92.0931 165.147 92.796 163.527 92.796C161.097 92.796 160.287 91.6499 160.287 90.2135C160.287 88.0742 162.091 86.5919 164.704 86.5919C166.935 86.5919 168.249 87.8297 168.249 90.2899Z" fill="#1A1A1A"/>
<path d="M188.347 72.8956C186.96 72.8956 185.978 72.0488 185.88 69.8766L187.095 69.7662V69.8521C187.168 71.0916 187.573 71.7911 188.334 71.7911C188.923 71.7911 189.377 71.3248 189.377 70.4412C189.377 69.7662 188.911 69.1894 188.298 68.8458L187.549 68.4285C186.8 68.0113 186.224 67.2381 186.224 66.2563C186.224 64.8696 187.119 64.0596 188.359 64.0596C189.733 64.0596 190.519 65.1027 190.519 66.33C190.519 66.4036 190.507 66.465 190.507 66.465L189.39 66.5877V66.4404C189.39 65.5814 188.96 65.1641 188.383 65.1641C187.868 65.1641 187.463 65.4586 187.463 66.2072C187.463 66.7595 187.758 67.1031 188.273 67.3976L189.071 67.8517C190.077 68.4162 190.629 69.3489 190.629 70.3553C190.629 71.8893 189.697 72.8956 188.347 72.8956ZM194.239 72.8956C192.779 72.8956 191.711 71.8893 191.711 70.0116V64.1946H192.963V70.0239C192.963 71.1039 193.478 71.7175 194.239 71.7175C195.012 71.7175 195.515 71.1039 195.515 70.0239V64.1946H196.767V70.0116C196.767 71.8647 195.736 72.8956 194.239 72.8956ZM198.271 72.7852V64.1946H200.787C202.039 64.1946 203.009 64.9677 203.009 66.2809C203.009 67.5326 202.088 68.3303 200.922 68.3303H199.523V72.7852H198.271ZM199.523 67.2136H200.8C201.401 67.2136 201.72 66.8454 201.72 66.2809C201.72 65.7163 201.254 65.3114 200.677 65.3114H199.523V67.2136ZM204 72.7852V64.1946H208.075V65.3114H205.252V67.0172H207.841V68.134H205.252V71.6684H208.111V72.7852H204ZM209.333 72.7852V64.1946H211.604C212.72 64.1946 213.837 64.9555 213.837 66.2318C213.837 66.5509 213.764 67.189 213.309 67.6676C213.089 67.9008 212.843 68.0603 212.598 68.1708L214.389 72.7852H213.027L211.358 68.3426H210.585V72.7852H209.333ZM210.585 67.2381H211.714C212.193 67.1767 212.536 66.8577 212.536 66.2318C212.536 65.6918 212.082 65.3114 211.493 65.3114H210.585V67.2381ZM186.371 83.7852V75.1946H187.672L190.457 81.1589V75.1946H191.697V83.7852H190.396L187.61 77.8331V83.7852H186.371ZM192.706 83.7852L194.633 75.1946H196.461L198.388 83.7852H197.063L196.375 80.5207H194.682L193.958 83.7852H192.706ZM194.866 79.4899H196.191L195.553 76.2868H195.529L194.866 79.4899ZM200.527 83.7852V76.3114H198.649V75.1946H203.657V76.3114H201.779V83.7852H200.527ZM206.943 83.8956C205.482 83.8956 204.415 82.8893 204.415 81.0116V75.1946H205.666V81.0239C205.666 82.1039 206.182 82.7175 206.943 82.7175C207.716 82.7175 208.219 82.1039 208.219 81.0239V75.1946H209.471V81.0116C209.471 82.8647 208.44 83.8956 206.943 83.8956ZM210.975 83.7852V75.1946H213.246C214.362 75.1946 215.479 75.9555 215.479 77.2318C215.479 77.5509 215.405 78.189 214.951 78.6676C214.73 78.9008 214.485 79.0603 214.24 79.1708L216.031 83.7852H214.669L213 79.3426H212.227V83.7852H210.975ZM212.227 78.2381H213.356C213.835 78.1767 214.178 77.8577 214.178 77.2318C214.178 76.6918 213.724 76.3114 213.135 76.3114H212.227V78.2381ZM216.208 83.7852L218.134 75.1946H219.963L221.89 83.7852H220.564L219.877 80.5207H218.184L217.46 83.7852H216.208ZM218.368 79.4899H219.693L219.055 76.2868H219.03L218.368 79.4899ZM222.9 83.7852V75.1946H224.152V82.6684H226.925V83.7852H222.9ZM186.371 94.7852V86.1946H188.248C190.016 86.1946 191.55 87.8268 191.55 90.4285C191.55 93.1898 190.065 94.7852 188.285 94.7852H186.371ZM188.285 93.6684C189.377 93.6684 190.249 92.4289 190.249 90.4285C190.249 88.4895 189.328 87.3114 188.248 87.3114H187.623V93.6684H188.285ZM192.878 94.7852V86.1946H196.953V87.3114H194.13V89.0172H196.72V90.134H194.13V93.6684H196.99V94.7852H192.878ZM200.187 94.8956C198.801 94.8956 197.819 94.0488 197.721 91.8766L198.936 91.7662V91.8521C199.009 93.0916 199.414 93.7911 200.175 93.7911C200.764 93.7911 201.218 93.3248 201.218 92.4412C201.218 91.7662 200.752 91.1894 200.138 90.8458L199.39 90.4285C198.641 90.0113 198.064 89.2381 198.064 88.2563C198.064 86.8696 198.96 86.0596 200.2 86.0596C201.574 86.0596 202.36 87.1027 202.36 88.33C202.36 88.4036 202.347 88.465 202.347 88.465L201.231 88.5877V88.4404C201.231 87.5814 200.801 87.1641 200.224 87.1641C199.709 87.1641 199.304 87.4586 199.304 88.2072C199.304 88.7595 199.598 89.1031 200.114 89.3976L200.911 89.8517C201.918 90.4162 202.47 91.3489 202.47 92.3553C202.47 93.8893 201.537 94.8956 200.187 94.8956ZM203.76 94.7852V86.1946H205.012V94.7852H203.76ZM209.199 94.8956C207.285 94.8956 206.34 92.9934 206.34 90.3917C206.34 87.9372 207.322 86.0596 209.212 86.0596C210.795 86.0596 211.556 87.3359 211.838 88.5877L210.623 88.919C210.414 88.06 210.071 87.2377 209.212 87.2377C208.083 87.2377 207.628 88.7104 207.628 90.3917C207.628 92.3184 208.07 93.7297 209.199 93.7297C209.997 93.7297 210.476 92.932 210.562 91.9748H208.978V90.9194H211.862V91.2508C211.862 93.6193 210.709 94.8956 209.199 94.8956ZM213.084 94.7852V86.1946H214.385L217.171 92.1589V86.1946H218.411V94.7852H217.11L214.324 88.8331V94.7852H213.084Z" fill="#1A1A1A"/>
<path d="M156.501 68.474C155.17 68.474 154.217 67.4711 154.217 65.9221C154.217 64.4427 155.121 63.4497 156.411 63.4497C157.613 63.4497 158.397 64.4427 158.487 65.5746C158.506 65.7633 158.516 65.8725 158.516 65.9916H154.783C154.803 67.203 155.567 67.9576 156.58 67.9576C157.186 67.9576 157.732 67.6598 158.05 67.1236L158.447 67.4314C158.099 68.047 157.394 68.474 156.501 68.474ZM154.793 65.4852H157.931C157.801 64.532 157.226 63.9661 156.411 63.9661C155.617 63.9661 154.882 64.4625 154.793 65.4852ZM160.992 68.4938C160.237 68.4938 159.344 68.1562 158.996 67.1534L159.483 66.925C159.741 67.62 160.327 67.9775 160.992 67.9775C161.647 67.9775 162.144 67.6796 162.144 67.0938C162.144 66.4782 161.568 66.3193 160.992 66.22C159.999 66.0512 159.234 65.8427 159.234 64.8696C159.234 64.0058 159.989 63.42 160.903 63.42C161.816 63.42 162.432 63.8866 162.67 64.5519L162.193 64.7703C161.975 64.2342 161.508 63.9363 160.903 63.9363C160.247 63.9363 159.791 64.3136 159.791 64.8299C159.791 65.4356 160.347 65.5548 160.942 65.664C161.965 65.8526 162.7 66.081 162.7 67.0739C162.7 67.9775 161.896 68.4938 160.992 68.4938ZM165.12 68.4938C164.455 68.4938 163.918 68.1463 163.918 67.1931V64.0654H163.134V63.559H163.908V62.0696H164.474V63.559H166.133V64.0654H164.474V67.1732C164.474 67.7789 164.782 67.9775 165.12 67.9775C165.348 67.9775 165.596 67.8881 165.775 67.6697L166.143 68.0073C165.884 68.3647 165.487 68.4938 165.12 68.4938Z" fill="#1A1A1A"/>
<line x1="149.883" y1="70.5255" x2="170.223" y2="70.5255" stroke="#1A1A1A" stroke-width="0.425541"/>
<path d="M150.522 50.7204C145.189 50.7204 139.356 47.7871 139.356 40.3539C139.356 32.254 145.922 26.5207 152.789 26.5207C159.056 26.5207 163.189 29.5873 163.755 34.0873L157.156 35.8206C156.922 34.2206 155.222 32.6873 152.356 32.6873C149.089 32.6873 146.356 35.8206 146.356 39.9872C146.356 43.5205 148.856 44.6872 151.089 44.6872C153.522 44.6872 154.656 44.0872 155.589 42.7539H151.422L152.589 37.3539H163.589L163.089 39.5206C161.089 48.2205 156.122 50.7204 150.522 50.7204ZM160.703 50.2871L165.67 26.954H176.07C180.57 26.954 182.937 29.9207 182.937 33.2873C182.937 36.1873 181.937 38.4206 180.07 39.8872C179.37 40.4539 178.637 40.8539 177.87 41.1205L181.07 50.2871H174.07L171.303 41.6539H169.237L167.403 50.2871H160.703ZM170.437 36.0206H174.137C175.403 36.0206 176.17 35.3539 176.17 34.2539C176.17 33.3873 175.67 32.8206 174.47 32.8206H171.103L170.437 36.0206ZM180.034 50.2871L185.001 26.954H201.634L200.367 32.8206H190.467L189.934 35.3539H199.067L197.834 41.1205H188.667L187.967 44.4205H198.134L196.9 50.2871H180.034ZM209.588 50.7204C204.255 50.7204 198.422 47.7871 198.422 40.3539C198.422 32.254 204.988 26.5207 211.855 26.5207C218.121 26.5207 222.255 29.5873 222.821 34.0873L216.221 35.8206C215.988 34.2206 214.288 32.6873 211.421 32.6873C208.155 32.6873 205.421 35.8206 205.421 39.9872C205.421 43.5205 207.921 44.6872 210.155 44.6872C212.588 44.6872 213.721 44.0872 214.655 42.7539H210.488L211.655 37.3539H222.655L222.155 39.5206C220.155 48.2205 215.188 50.7204 209.588 50.7204Z" fill="#1A1A1A"/>
<path d="M34.9989 108.851C42.8732 113.757 56.0743 115.512 69.7393 112.017C83.5147 108.494 97.9843 99.5945 108.404 82.8553C115.947 70.7377 119.373 56.1893 118.916 43.18C118.462 30.26 114.137 18.3244 105.531 12.0528C95.3514 4.63441 80.3396 4.37759 66.059 9.16227C51.6969 13.9742 37.5218 24.0415 28.6973 38.1419C19.9227 52.1628 17.0398 66.9863 18.5503 79.7206C20.0552 92.4078 25.9649 103.223 34.9989 108.851Z" fill="#1A1A1A" stroke="#D4D4D4" stroke-width="4.77919"/>
<rect x="14.3789" y="25.8711" width="2.3856" height="7.09217" fill="#D4D4D4"/>
<rect x="19.1094" y="28.2207" width="2.3856" height="7.09217" transform="rotate(90 19.1094 28.2207)" fill="#D4D4D4"/>
<rect x="117.242" y="88.2676" width="2.3856" height="7.09217" fill="#D4D4D4"/>
<rect x="121.973" y="90.6172" width="2.3856" height="7.09217" transform="rotate(90 121.973 90.6172)" fill="#D4D4D4"/>
<path d="M28.5117 73.0108C28.5117 44.6535 48.8348 24.7766 69.3879 18.1931C89.0268 11.9052 103.414 18.0152 107.638 32.4547L85.9439 45.51C84.2321 40.1811 77.8361 36.8095 69.3879 39.5146C61.7372 41.9634 52.0313 50.2598 52.0313 65.4744C52.0313 81.844 61.3937 83.4544 69.5014 80.8579C77.2656 78.3699 82.5173 74.1538 85.3733 69.0903L71.7867 73.4421V54.7684L109.353 42.7385V47.3496C109.353 78.7016 87.7721 95.8734 69.7314 101.649C48.9513 108.304 28.5117 101.824 28.5117 73.0078L28.5117 73.0108Z" fill="#D4D4D4"/>
</svg>
