<svg width="50" height="45" viewBox="0 0 50 45" fill="none" xmlns="http://www.w3.org/2000/svg">
<path d="M24.5529 20.3017C23.2738 20.3017 22.0836 20.1595 20.9821 19.8753L19.0102 21.8472C19.6142 22.167 20.4314 22.4335 21.4618 22.6467C22.4922 22.8598 24.1621 23.073 26.4716 23.2862C29.9891 23.606 32.5473 24.4409 34.1461 25.7911C35.745 27.1413 36.5444 29.0066 36.5444 31.3871C36.5444 32.9505 36.1181 34.425 35.2654 35.8107C34.4126 37.2319 33.098 38.3689 31.3215 39.2216C29.545 40.1099 27.271 40.554 24.4996 40.554C20.7334 40.554 17.6956 39.8434 15.3861 38.4222C13.0766 37.0365 11.9219 34.9402 11.9219 32.1333C11.9219 29.7527 13.0766 27.692 15.3861 25.951C14.6755 25.6312 14.0537 25.2937 13.5207 24.9384C13.0233 24.5831 12.5792 24.21 12.1884 23.8192V22.5934L16.8251 17.6902C14.7643 15.8781 13.7339 13.5509 13.7339 10.7084C13.7339 8.93192 14.1603 7.31529 15.013 5.85854C15.9013 4.4018 17.1448 3.24706 18.7437 2.39433C20.3426 1.5416 22.279 1.11523 24.5529 1.11523C26.0452 1.11523 27.4309 1.32842 28.71 1.75478H38.7296V5.91184L34.1994 6.23161C34.9101 7.58177 35.2654 9.07405 35.2654 10.7084C35.2654 12.485 34.839 14.1016 33.9863 15.5583C33.1335 17.0151 31.89 18.1698 30.2556 19.0226C28.6567 19.8753 26.7558 20.3017 24.5529 20.3017ZM24.5529 15.0787C25.9386 15.0787 27.0756 14.7056 27.9639 13.9595C28.8876 13.2133 29.3495 12.1474 29.3495 10.7617C29.3495 9.37605 28.8876 8.31014 27.9639 7.564C27.0756 6.81786 25.9386 6.44479 24.5529 6.44479C23.0962 6.44479 21.9237 6.81786 21.0354 7.564C20.1472 8.31014 19.703 9.37605 19.703 10.7617C19.703 12.1474 20.1472 13.2133 21.0354 13.9595C21.9237 14.7056 23.0962 15.0787 24.5529 15.0787ZM18.1575 31.4404C18.1575 32.7551 18.7615 33.7321 19.9695 34.3717C21.2131 35.0468 22.7231 35.3843 24.4996 35.3843C26.2051 35.3843 27.5908 35.029 28.6567 34.3184C29.7226 33.6433 30.2556 32.7195 30.2556 31.547C30.2556 30.5877 29.9003 29.7883 29.1897 29.1487C28.5146 28.5092 27.1467 28.1183 25.0859 27.9762C23.6291 27.8696 22.279 27.7097 21.0354 27.4966C20.005 28.065 19.2589 28.6868 18.797 29.3619C18.3706 30.037 18.1575 30.7298 18.1575 31.4404Z" fill="#1A1818"/>
</svg>
