<svg width="162" height="59" viewBox="0 0 162 59" fill="none" xmlns="http://www.w3.org/2000/svg">
<rect x="1.1875" y="0.5" width="159.47" height="57.2073" rx="22.215" fill="#FFE9BD"/>
<path d="M33.2285 39.9231C26.5265 39.9231 22.6196 35.6033 22.6196 28.9649C22.6196 22.3264 27.1935 18.0067 34.9437 18.0067C42.1538 18.0067 46.4418 21.183 46.4418 26.4556V26.678H39.7716V26.4556C39.7716 24.4863 38.5646 23.724 34.7848 23.724C30.211 23.724 28.9722 24.7404 28.9722 28.9649C28.9722 33.1894 30.1474 34.2058 34.4672 34.2058C38.8823 34.2058 40.1528 33.9834 40.4386 32.3635H33.8955V27.9802H46.4736V39.6055H40.9151V35.0634H40.5975C40.0257 37.5409 38.2152 39.9231 33.2285 39.9231ZM54.2198 39.6055H48.2484V18.3243H60.6677C66.2897 18.3243 69.2437 20.6748 69.2437 24.8357C69.2437 28.2026 67.5602 30.2036 63.4946 30.7118V31.0295C65.6862 31.6012 66.385 32.6494 67.1791 34.2693L69.8154 39.6055H62.9228L60.3818 34.3963C59.6195 32.8082 58.9842 32.3635 56.6655 32.3635H54.2198V39.6055ZM54.2198 23.6922V27.9167H60.6041C62.3511 27.9167 62.9864 27.5991 62.9864 25.7886C62.9864 24.1052 62.3511 23.6922 60.6041 23.6922H54.2198ZM89.6667 39.6055H70.7678V18.3243H89.6667V23.6922H76.7392V26.2333H89.1903V31.5694H76.7392V34.2375H89.6667V39.6055ZM101.655 39.9231C94.9533 39.9231 91.0464 35.6033 91.0464 28.9649C91.0464 22.3264 95.6203 18.0067 103.37 18.0067C110.581 18.0067 114.869 21.183 114.869 26.4556V26.678H108.198V26.4556C108.198 24.4863 106.991 23.724 103.212 23.724C98.6378 23.724 97.399 24.7404 97.399 28.9649C97.399 33.1894 98.5742 34.2058 102.894 34.2058C107.309 34.2058 108.58 33.9834 108.865 32.3635H102.322V27.9802H114.9V39.6055H109.342V35.0634H109.024C108.453 37.5409 106.642 39.9231 101.655 39.9231Z" fill="#2E2E2E"/>
<path d="M123.74 26.216L129.334 17.5547L139.859 17.6148L133.243 25.9152H137.393L131.86 32.0503H135.769L124.101 40.6515L127.589 33.8548H123.078L127.89 26.216H123.74Z" fill="#2E2E2E"/>
<rect x="1.1875" y="0.5" width="159.47" height="57.2073" rx="22.215" stroke="#EFC149"/>
</svg>
