<svg width="58" height="58" viewBox="0 0 58 58" fill="none" xmlns="http://www.w3.org/2000/svg">
<path fill-rule="evenodd" clip-rule="evenodd" d="M55.5906 25.1758L41.3678 18.0798C40.7708 17.7824 40.2803 17.2937 39.9605 16.6989L32.8384 2.52817C32.0921 1.06223 30.6207 0.148682 28.9788 0.148682V0.148682C27.3369 0.148682 25.8443 1.06223 25.1193 2.52817L18.0185 16.6989C17.72 17.2937 17.2296 17.7824 16.6325 18.1011L2.40972 25.197C0.938396 25.9406 0.0214844 27.4066 0.0214844 29.0425C0.0214844 30.6784 0.938396 32.1655 2.40972 32.8879L16.6112 39.9626C17.2082 40.26 17.6987 40.7487 18.0185 41.3436L25.1406 55.5142C25.8869 56.9802 27.3582 57.8937 29.0002 57.8937V57.8937C30.6421 57.8937 32.1347 56.9802 32.8597 55.5142L39.9818 41.3436C40.2803 40.7487 40.7708 40.26 41.3678 39.9414L55.5906 32.8454C57.0619 32.1018 57.9788 30.6359 57.9788 29C57.9788 27.3853 57.0619 25.8981 55.5906 25.1758V25.1758ZM35.781 33.4403C35.781 34.1201 35.2266 34.6725 34.5443 34.6725C33.8619 34.6725 33.3075 34.1201 33.3075 33.4403V27.1516L29.7678 29.9773C29.32 30.3384 28.6803 30.3384 28.2325 29.9773L24.6928 27.1516V33.4403C24.6928 34.1201 24.1384 34.6725 23.456 34.6725C22.7737 34.6725 22.2193 34.1201 22.2193 33.4403V24.5809C22.2193 24.1135 22.4965 23.6674 22.923 23.4762C23.3494 23.2637 23.8612 23.3274 24.2237 23.6249L29.0002 27.4278L33.7766 23.6249C34.1391 23.3274 34.6509 23.2637 35.0774 23.4762C35.5038 23.6886 35.781 24.1135 35.781 24.5809V33.4403V33.4403Z" fill="#5A4FFF"/>
<path fill-rule="evenodd" clip-rule="evenodd" d="M54.3969 23.2L55.058 22.4351C56.1455 21.2029 56.4227 19.482 55.783 17.9736C55.1433 16.4652 53.7359 15.4454 52.094 15.3392L51.0918 15.2754L49.2793 20.6718L54.3969 23.2V23.2Z" fill="#5A4FFF"/>
<path fill-rule="evenodd" clip-rule="evenodd" d="M42.8178 7.01096L42.7538 6.01242C42.6259 4.37653 41.6023 2.97433 40.0884 2.33697C39.5553 2.12451 39.0009 1.99704 38.4251 1.99704C37.4016 1.99704 36.3994 2.37946 35.6104 3.05931L34.8428 3.71792L37.4016 8.81682L42.8178 7.01096V7.01096Z" fill="#5A4FFF"/>
<path fill-rule="evenodd" clip-rule="evenodd" d="M41.0691 16.1465C41.2397 16.5077 41.5382 16.8051 41.9007 16.9751L48.1699 20.0981L50.5368 13.0022C51.0485 11.4513 50.6647 9.75162 49.4919 8.60437C48.6816 7.79704 47.5941 7.35089 46.4427 7.35089C45.9735 7.35089 45.5044 7.43587 45.0566 7.58459L37.9346 9.94283L41.0691 16.1465V16.1465Z" fill="#5A4FFF"/>
<path fill-rule="evenodd" clip-rule="evenodd" d="M23.1576 3.71792L22.39 3.05931C21.601 2.37946 20.5988 1.99704 19.5753 1.99704C18.9995 1.99704 18.4451 2.10327 17.912 2.33697C16.3981 2.97433 15.3745 4.37653 15.2679 6.01242L15.1826 7.01096L20.5988 8.81682L23.1576 3.71792V3.71792Z" fill="#5A4FFF"/>
<path fill-rule="evenodd" clip-rule="evenodd" d="M9.82984 20.0981L16.0776 16.975C16.4401 16.8051 16.7387 16.5076 16.9093 16.1465L20.0225 9.92156L12.9218 7.56332C12.474 7.4146 12.0048 7.32962 11.5357 7.32962C10.3843 7.32962 9.31808 7.77577 8.48646 8.5831C7.31367 9.7516 6.92984 11.43 7.44161 12.9809L9.82984 20.0981V20.0981Z" fill="#5A4FFF"/>
<path fill-rule="evenodd" clip-rule="evenodd" d="M3.60403 23.2L8.72168 20.6505L6.90918 15.2542L5.90698 15.3179C4.26506 15.4241 2.85771 16.4439 2.21801 17.9523C1.5783 19.4608 1.87683 21.1817 2.94301 22.4139L3.60403 23.2V23.2Z" fill="#5A4FFF"/>
<path fill-rule="evenodd" clip-rule="evenodd" d="M16.9094 41.8959C16.7388 41.5348 16.4403 41.2373 16.0778 41.0674L9.83 37.9655L7.46309 45.0403C6.95133 46.5912 7.33515 48.2908 8.50794 49.4381C9.31824 50.2454 10.4057 50.6915 11.5572 50.6915C12.0263 50.6915 12.4954 50.6066 12.9432 50.4578L20.0653 48.0996L16.9094 41.8959V41.8959Z" fill="#5A4FFF"/>
<path fill-rule="evenodd" clip-rule="evenodd" d="M15.1826 51.0315L15.2466 52.03C15.3532 53.6659 16.3767 55.0681 17.8907 55.7055C19.3834 56.3216 21.1532 56.0454 22.3686 54.9831L23.1363 54.3245L20.5775 49.2256L15.1826 51.0315V51.0315Z" fill="#5A4FFF"/>
<path fill-rule="evenodd" clip-rule="evenodd" d="M3.60336 34.8425L2.94233 35.6073C1.85483 36.8395 1.57762 38.5604 2.21733 40.0688C2.85703 41.5773 4.26439 42.597 5.9063 42.7033L6.90851 42.767L8.72101 37.3919L3.60336 34.8425V34.8425Z" fill="#5A4FFF"/>
<path fill-rule="evenodd" clip-rule="evenodd" d="M34.8428 54.3245L35.6104 54.9831C36.8259 56.0454 38.5957 56.3216 40.0884 55.7055C41.6023 55.0681 42.6259 53.6659 42.7325 52.03L42.7965 51.0315L37.3803 49.2256L34.8428 54.3245V54.3245Z" fill="#5A4FFF"/>
<path fill-rule="evenodd" clip-rule="evenodd" d="M48.1702 37.9443L41.9224 41.0674C41.5599 41.2373 41.2614 41.5348 41.0908 41.8959L37.9775 48.1208L45.0996 50.4791C45.5474 50.6278 46.0165 50.7128 46.4856 50.7128C47.6371 50.7128 48.7033 50.2666 49.5349 49.4593C50.7077 48.2908 51.0915 46.6124 50.5797 45.0615L48.1702 37.9443V37.9443Z" fill="#5A4FFF"/>
<path fill-rule="evenodd" clip-rule="evenodd" d="M54.3969 34.8425L49.2793 37.3919L51.0918 42.7882L52.094 42.7245C53.7359 42.6183 55.1433 41.5985 55.783 40.0901C56.4227 38.5816 56.1241 36.8608 55.058 35.6285L54.3969 34.8425V34.8425Z" fill="#5A4FFF"/>
</svg>
