<svg width="58" height="58" viewBox="0 0 58 58" fill="none" xmlns="http://www.w3.org/2000/svg">
<path fill-rule="evenodd" clip-rule="evenodd" d="M55.5691 25.282L41.3463 18.186C40.7493 17.8886 40.2588 17.3999 39.939 16.8051L32.8169 2.63437C32.0706 1.16844 30.5993 0.254883 28.9574 0.254883C27.3154 0.254883 25.8228 1.16844 25.0978 2.63437L17.9971 16.8051C17.6985 17.3999 17.2081 17.8886 16.611 18.2073L2.38824 25.3032C0.916912 26.0468 0 27.5128 0 29.1487C0 30.7846 0.916912 32.2717 2.38824 32.9941L16.5897 40.0688C17.1868 40.3662 17.6772 40.8549 17.9971 41.4498L25.1191 55.6204C25.8654 57.0864 27.3368 57.9999 28.9787 57.9999C30.6206 57.9999 32.1132 57.0864 32.8382 55.6204L39.9603 41.4498C40.2588 40.8549 40.7493 40.3662 41.3463 40.0476L55.5691 32.9516C57.0404 32.208 57.9574 30.7421 57.9574 29.1062C57.9574 27.4915 57.0404 26.0043 55.5691 25.282ZM35.7596 33.5465C35.7596 34.2263 35.2051 34.7787 34.5228 34.7787C33.8404 34.7787 33.286 34.2263 33.286 33.5465V27.2578L29.7463 30.0835C29.2985 30.4446 28.6588 30.4446 28.211 30.0835L24.6713 27.2578V33.5465C24.6713 34.2263 24.1169 34.7787 23.4346 34.7787C22.7522 34.7787 22.1978 34.2263 22.1978 33.5465V24.6871C22.1978 24.2197 22.475 23.7736 22.9015 23.5824C23.3279 23.3699 23.8397 23.4336 24.2022 23.7311L28.9787 27.534L33.7551 23.7311C34.1176 23.4336 34.6294 23.3699 35.0559 23.5824C35.4824 23.7948 35.7596 24.2197 35.7596 24.6871V33.5465Z" fill="#5A4FFF"/>
<path fill-rule="evenodd" clip-rule="evenodd" d="M54.375 23.3064L55.036 22.5415C56.1235 21.3093 56.4007 19.5884 55.761 18.08C55.1213 16.5716 53.714 15.5518 52.0721 15.4456L51.0699 15.3818L49.2574 20.7782L54.375 23.3064Z" fill="#5A4FFF"/>
<path fill-rule="evenodd" clip-rule="evenodd" d="M42.7963 7.11695L42.7323 6.11841C42.6044 4.48251 41.5809 3.08032 40.0669 2.44295C39.5338 2.2305 38.9794 2.10303 38.4037 2.10303C37.3801 2.10303 36.3779 2.48544 35.589 3.1653L34.8213 3.82391L37.3801 8.92281L42.7963 7.11695Z" fill="#5A4FFF"/>
<path fill-rule="evenodd" clip-rule="evenodd" d="M41.0478 16.2526C41.2184 16.6138 41.5169 16.9112 41.8794 17.0812L48.1485 20.2043L50.5154 13.1083C51.0272 11.5574 50.6434 9.85776 49.4706 8.71051C48.6603 7.90319 47.5728 7.45703 46.4213 7.45703C45.9522 7.45703 45.4831 7.54201 45.0353 7.69073L37.9132 10.049L41.0478 16.2526Z" fill="#5A4FFF"/>
<path fill-rule="evenodd" clip-rule="evenodd" d="M23.136 3.82391L22.3684 3.1653C21.5794 2.48544 20.5772 2.10303 19.5537 2.10303C18.978 2.10303 18.4235 2.20925 17.8905 2.44295C16.3765 3.08032 15.353 4.48251 15.2463 6.11841L15.161 7.11695L20.5772 8.92281L23.136 3.82391Z" fill="#5A4FFF"/>
<path fill-rule="evenodd" clip-rule="evenodd" d="M9.80882 20.2045L16.0566 17.0815C16.4191 16.9115 16.7176 16.6141 16.8882 16.2529L20.0015 10.028L12.9007 7.66973C12.4529 7.52102 11.9838 7.43604 11.5147 7.43604C10.3632 7.43604 9.29705 7.88219 8.46543 8.68951C7.29264 9.85801 6.90882 11.5364 7.42058 13.0873L9.80882 20.2045Z" fill="#5A4FFF"/>
<path fill-rule="evenodd" clip-rule="evenodd" d="M3.58237 23.3061L8.70001 20.7567L6.88751 15.3604L5.88531 15.4241C4.2434 15.5303 2.83604 16.5501 2.19634 18.0585C1.55663 19.5669 1.85516 21.2878 2.92134 22.5201L3.58237 23.3061Z" fill="#5A4FFF"/>
<path fill-rule="evenodd" clip-rule="evenodd" d="M16.8882 42.0022C16.7176 41.641 16.4191 41.3436 16.0566 41.1736L9.80882 38.0718L7.44191 45.1465C6.93015 46.6974 7.31397 48.3971 8.48676 49.5443C9.29706 50.3516 10.3846 50.7978 11.536 50.7978C12.0051 50.7978 12.4743 50.7128 12.9221 50.5641L20.0441 48.2058L16.8882 42.0022Z" fill="#5A4FFF"/>
<path fill-rule="evenodd" clip-rule="evenodd" d="M15.161 51.1379L15.225 52.1364C15.3316 53.7723 16.3552 55.1745 17.8691 55.8119C19.3618 56.428 21.1316 56.1518 22.3471 55.0895L23.1147 54.4309L20.5559 49.332L15.161 51.1379Z" fill="#5A4FFF"/>
<path fill-rule="evenodd" clip-rule="evenodd" d="M3.58236 34.9487L2.92133 35.7136C1.83383 36.9458 1.55663 38.6667 2.19633 40.1751C2.83604 41.6835 4.24339 42.7033 5.8853 42.8095L6.88751 42.8733L8.70001 37.4982L3.58236 34.9487Z" fill="#5A4FFF"/>
<path fill-rule="evenodd" clip-rule="evenodd" d="M34.8213 54.4309L35.589 55.0895C36.8044 56.1518 38.5743 56.428 40.0669 55.8119C41.5809 55.1745 42.6044 53.7723 42.711 52.1364L42.775 51.1379L37.3588 49.332L34.8213 54.4309Z" fill="#5A4FFF"/>
<path fill-rule="evenodd" clip-rule="evenodd" d="M48.1485 38.0503L41.9007 41.1734C41.5382 41.3433 41.2397 41.6408 41.0691 42.0019L37.9559 48.2268L45.0779 50.5851C45.5257 50.7338 45.9948 50.8188 46.464 50.8188C47.6154 50.8188 48.6816 50.3726 49.5132 49.5653C50.686 48.3968 51.0698 46.7184 50.5581 45.1675L48.1485 38.0503Z" fill="#5A4FFF"/>
<path fill-rule="evenodd" clip-rule="evenodd" d="M54.375 34.9487L49.2574 37.4982L51.0699 42.8945L52.0721 42.8308C53.714 42.7246 55.1213 41.7048 55.761 40.1963C56.4007 38.6879 56.1022 36.967 55.036 35.7348L54.375 34.9487Z" fill="#5A4FFF"/>
</svg>
