<svg width="513" height="514" viewBox="0 0 513 514" fill="none" xmlns="http://www.w3.org/2000/svg">
<rect x="0.939453" y="0.709717" width="512" height="513" fill="#4F4F4F"/>
<path opacity="0.2" d="M135.295 222.612V292.21H126.867V222.612H135.295ZM151.106 292.21V240.011H158.854V248.167H159.534C160.621 245.381 162.377 243.217 164.801 241.676C167.225 240.113 170.137 239.332 173.535 239.332C176.979 239.332 179.845 240.113 182.133 241.676C184.444 243.217 186.245 245.381 187.536 248.167H188.08C189.417 245.471 191.422 243.33 194.095 241.744C196.768 240.136 199.974 239.332 203.712 239.332C208.379 239.332 212.197 240.793 215.165 243.715C218.133 246.615 219.617 251.135 219.617 257.275V292.21H211.597V257.275C211.597 253.423 210.543 250.671 208.436 249.017C206.329 247.363 203.848 246.536 200.994 246.536C197.323 246.536 194.48 247.646 192.464 249.866C190.447 252.064 189.439 254.851 189.439 258.226V292.21H181.283V256.459C181.283 253.491 180.32 251.101 178.395 249.289C176.469 247.454 173.988 246.536 170.952 246.536C168.868 246.536 166.92 247.091 165.107 248.201C163.317 249.311 161.867 250.852 160.757 252.823C159.67 254.771 159.126 257.026 159.126 259.586V292.21H151.106ZM249.641 293.433C246.333 293.433 243.331 292.81 240.635 291.564C237.939 290.295 235.798 288.472 234.212 286.093C232.627 283.691 231.834 280.791 231.834 277.393C231.834 274.402 232.423 271.978 233.601 270.12C234.779 268.24 236.353 266.767 238.324 265.703C240.296 264.638 242.47 263.845 244.849 263.324C247.251 262.78 249.664 262.35 252.088 262.032C255.26 261.625 257.831 261.319 259.802 261.115C261.796 260.888 263.246 260.515 264.152 259.993C265.081 259.472 265.545 258.566 265.545 257.275V257.003C265.545 253.65 264.628 251.044 262.793 249.187C260.98 247.329 258.227 246.4 254.535 246.4C250.706 246.4 247.704 247.238 245.529 248.915C243.354 250.591 241.825 252.381 240.941 254.284L233.329 251.566C234.688 248.394 236.501 245.924 238.766 244.157C241.054 242.367 243.547 241.121 246.243 240.419C248.961 239.694 251.635 239.332 254.263 239.332C255.939 239.332 257.865 239.535 260.04 239.943C262.237 240.328 264.356 241.133 266.395 242.356C268.456 243.579 270.167 245.426 271.526 247.895C272.886 250.365 273.565 253.673 273.565 257.818V292.21H265.545V285.141H265.137C264.594 286.274 263.687 287.486 262.419 288.777C261.15 290.069 259.462 291.168 257.355 292.074C255.248 292.98 252.677 293.433 249.641 293.433ZM250.864 286.229C254.036 286.229 256.71 285.606 258.884 284.36C261.082 283.113 262.736 281.505 263.846 279.534C264.979 277.563 265.545 275.49 265.545 273.315V265.975C265.205 266.382 264.458 266.756 263.302 267.096C262.17 267.413 260.855 267.696 259.36 267.946C257.888 268.172 256.449 268.376 255.044 268.557C253.662 268.716 252.541 268.852 251.68 268.965C249.596 269.237 247.647 269.679 245.835 270.29C244.045 270.879 242.595 271.774 241.485 272.975C240.397 274.153 239.854 275.762 239.854 277.801C239.854 280.587 240.885 282.694 242.946 284.122C245.031 285.526 247.67 286.229 250.864 286.229ZM309.273 312.872C305.399 312.872 302.069 312.373 299.282 311.376C296.496 310.402 294.173 309.111 292.316 307.502C290.481 305.916 289.019 304.217 287.932 302.405L294.321 297.919C295.046 298.87 295.963 299.958 297.073 301.181C298.183 302.427 299.701 303.504 301.627 304.41C303.575 305.339 306.124 305.803 309.273 305.803C313.487 305.803 316.965 304.784 319.706 302.745C322.448 300.706 323.818 297.511 323.818 293.161V282.558H323.139C322.55 283.51 321.711 284.688 320.624 286.093C319.559 287.475 318.018 288.709 316.002 289.797C314.008 290.862 311.312 291.394 307.914 291.394C303.7 291.394 299.917 290.397 296.564 288.404C293.233 286.41 290.594 283.51 288.645 279.704C286.72 275.898 285.757 271.276 285.757 265.839C285.757 260.492 286.697 255.836 288.577 251.871C290.458 247.884 293.075 244.803 296.428 242.628C299.781 240.43 303.655 239.332 308.05 239.332C311.448 239.332 314.144 239.898 316.138 241.031C318.154 242.141 319.695 243.41 320.76 244.837C321.847 246.241 322.685 247.397 323.275 248.303H324.09V240.011H331.838V293.705C331.838 298.191 330.819 301.838 328.78 304.648C326.763 307.48 324.045 309.553 320.624 310.867C317.225 312.203 313.442 312.872 309.273 312.872ZM309.001 284.19C312.219 284.19 314.937 283.453 317.158 281.981C319.378 280.508 321.066 278.39 322.221 275.626C323.376 272.862 323.954 269.554 323.954 265.703C323.954 261.942 323.388 258.623 322.255 255.746C321.122 252.868 319.446 250.614 317.225 248.983C315.005 247.352 312.264 246.536 309.001 246.536C305.603 246.536 302.771 247.397 300.506 249.119C298.263 250.841 296.575 253.151 295.442 256.051C294.332 258.951 293.777 262.168 293.777 265.703C293.777 269.328 294.343 272.533 295.476 275.32C296.632 278.084 298.331 280.259 300.574 281.845C302.839 283.408 305.648 284.19 309.001 284.19ZM368.405 293.297C363.375 293.297 359.036 292.187 355.389 289.967C351.764 287.724 348.966 284.597 346.995 280.587C345.047 276.555 344.072 271.865 344.072 266.518C344.072 261.172 345.047 256.459 346.995 252.381C348.966 248.28 351.707 245.086 355.219 242.798C358.753 240.487 362.877 239.332 367.589 239.332C370.308 239.332 372.992 239.785 375.643 240.691C378.294 241.597 380.707 243.07 382.881 245.109C385.056 247.125 386.79 249.798 388.081 253.129C389.372 256.459 390.018 260.56 390.018 265.431V268.829H349.782V261.897H381.862C381.862 258.951 381.273 256.323 380.095 254.012C378.939 251.701 377.286 249.878 375.133 248.541C373.004 247.204 370.489 246.536 367.589 246.536C364.394 246.536 361.63 247.329 359.297 248.915C356.986 250.478 355.208 252.517 353.962 255.032C352.716 257.547 352.092 260.243 352.092 263.12V267.742C352.092 271.684 352.772 275.025 354.131 277.767C355.513 280.485 357.428 282.558 359.875 283.986C362.321 285.39 365.165 286.093 368.405 286.093C370.511 286.093 372.415 285.798 374.114 285.209C375.836 284.597 377.32 283.691 378.566 282.49C379.812 281.267 380.774 279.749 381.454 277.937L389.202 280.112C388.387 282.74 387.016 285.051 385.09 287.044C383.165 289.015 380.786 290.556 377.954 291.666C375.122 292.753 371.939 293.297 368.405 293.297Z" fill="#EFEFEF"/>
</svg>
