<svg width="46" height="46" viewBox="0 0 46 46" fill="none" xmlns="http://www.w3.org/2000/svg">
<rect width="46" height="46" rx="8" fill="#1A1A1A"/>
<rect x="3.5708" y="3.5708" width="38.8584" height="38.8584" rx="4" fill="#1A1A1A"/>
<path d="M12.6693 37.4499C14.9853 38.8929 18.8681 39.4091 22.8874 38.3812C26.9391 37.3451 31.195 34.7274 34.2599 29.8039C36.4785 26.2398 37.4862 21.9607 37.3517 18.1343C37.2181 14.3341 35.946 10.8235 33.4147 8.97887C30.4206 6.79692 26.0052 6.72138 21.8049 8.12869C17.5806 9.54403 13.4113 12.5051 10.8158 16.6524C8.2349 20.7764 7.38698 25.1364 7.83124 28.8819C8.27387 32.6136 10.0121 35.7945 12.6693 37.4499Z" stroke="#D4D4D4" stroke-width="1.40569"/>
<path d="M10.7618 26.9078C10.7618 18.5671 16.7394 12.7208 22.7847 10.7844C28.561 8.93495 32.7927 10.7321 34.0352 14.9791L27.6543 18.8191C27.1508 17.2517 25.2696 16.26 22.7847 17.0557C20.5344 17.7759 17.6796 20.2161 17.6796 24.6912C17.6796 29.5059 20.4334 29.9796 22.8181 29.2159C25.1017 28.4841 26.6464 27.244 27.4864 25.7547L23.4902 27.0347V21.5422L34.5395 18.0039V19.3601C34.5395 28.5816 28.192 33.6324 22.8857 35.331C16.7737 37.2887 10.7618 35.3825 10.7618 26.9069L10.7618 26.9078Z" fill="#D4D4D4"/>
</svg>
